<svg width="84" height="84" viewBox="0 0 84 84" fill="none" xmlns="http://www.w3.org/2000/svg">
<path d="M24.5 24.5H17.5C15.6435 24.5 13.863 25.2375 12.5503 26.5503C11.2375 27.863 10.5 29.6435 10.5 31.5V59.5H17.5V45.5H24.5V59.5H31.5V31.5C31.5 29.6435 30.7625 27.863 29.4497 26.5503C28.137 25.2375 26.3565 24.5 24.5 24.5ZM24.5 38.5H17.5V31.5H24.5M49 24.5H35V59.5H42V45.5H49C50.8565 45.5 52.637 44.7625 53.9497 43.4497C55.2625 42.137 56 40.3565 56 38.5V31.5C56 29.6435 55.2625 27.863 53.9497 26.5503C52.637 25.2375 50.8565 24.5 49 24.5ZM49 38.5H42V31.5H49M70 31.5V52.5H73.5V59.5H59.5V52.5H63V31.5H59.5V24.5H73.5V31.5H70Z" fill="#525252"/>
</svg>
