<svg width="33" height="19" viewBox="0 0 33 19" fill="none" xmlns="http://www.w3.org/2000/svg">
<path d="M25.2827 10.448L7.28327 10.5956C6.72329 10.6002 6.2797 10.1638 6.27511 9.60385C6.27051 9.04387 6.70689 8.60027 7.26687 8.59568L25.2663 8.44809C25.8262 8.4435 26.2698 8.87987 26.2744 9.43985C26.279 9.99983 25.8426 10.4434 25.2827 10.448Z" fill="black"/>
<path d="M20.3403 17.4888C20.2092 17.4915 20.0789 17.4667 19.9579 17.416C19.837 17.3653 19.7279 17.2899 19.6379 17.1945C19.2346 16.7978 19.2295 16.1778 19.6262 15.7746L25.8743 9.42313L19.5229 3.175C19.1196 2.7783 19.1145 2.15832 19.5113 1.75505C19.908 1.35178 20.5279 1.3467 20.9312 1.74341L27.9884 8.68577C28.3916 9.08248 28.3967 9.70246 28 10.1057L21.0576 17.1629C20.8593 17.3645 20.6001 17.4666 20.3601 17.4686L20.3403 17.4888Z" fill="black"/>
</svg>
