<svg width="16" height="11" viewBox="0 0 16 11" fill="none" xmlns="http://www.w3.org/2000/svg">
<path d="M16 8.25C16 9.76875 15.1567 11 13.5 11H2.5C0.84325 11 0 9.76875 0 8.25V2.75C0 1.23125 0.84325 0 2.5 0H13.5C15.1567 0 16 1.23125 16 2.75V8.25Z" fill="#128807"/>
<path d="M14.285 5.6975L8.03755 10.0875L1.78979 5.6975L8.03755 1.3075L14.285 5.6975Z" fill="#F9CB38"/>
<path fill-rule="evenodd" clip-rule="evenodd" d="M10.5024 6.462C10.2179 7.42875 9.32766 8.16474 8.31966 8.26474C6.97291 8.39949 5.79466 7.5435 5.50816 6.22025C5.42335 5.83139 5.43416 5.42776 5.53966 5.044C5.57891 5.0015 5.63316 4.99125 5.68716 4.98375C6.08102 4.9287 6.47925 4.91137 6.87641 4.932C7.30016 4.956 7.72041 5.01475 8.12891 5.13025C8.54816 5.249 8.95415 5.404 9.3374 5.61C9.62589 5.76312 9.90139 5.93954 10.1612 6.1375C10.2492 6.20575 10.3389 6.27275 10.4234 6.3455C10.4612 6.378 10.4909 6.413 10.5024 6.462Z" fill="#002776"/>
<path fill-rule="evenodd" clip-rule="evenodd" d="M5.68091 4.65272C6.00366 3.93147 6.54791 3.45122 7.30016 3.22572C8.81516 2.77147 10.3694 3.77272 10.5947 5.33422C10.6297 5.57547 10.6312 5.81747 10.5942 6.05922C10.5559 6.07347 10.5274 6.05322 10.5012 6.03147C10.2266 5.80711 9.93364 5.60624 9.62541 5.43097C9.38807 5.29627 9.14145 5.17864 8.88741 5.07897C8.84241 5.06122 8.78591 5.05197 8.77041 4.99172C8.78666 4.96272 8.80716 4.93747 8.83166 4.91397C8.84041 4.90497 8.85316 4.89622 8.84141 4.88122C8.83741 4.87647 8.82916 4.87647 8.82216 4.87722C8.80341 4.87922 8.80591 4.89222 8.80666 4.90597C8.80816 4.95072 8.78216 4.97947 8.74791 5.00247C8.68716 5.01622 8.62891 4.99797 8.57966 4.97172C8.43866 4.89772 8.28266 4.87247 8.13341 4.83122C7.90066 4.76797 7.66166 4.73222 7.42316 4.69497C7.23281 4.66463 7.0412 4.64278 6.84891 4.62947C6.67391 4.61722 6.49566 4.61897 6.31941 4.63097C6.12716 4.64447 5.93441 4.65797 5.74316 4.68097C5.73116 4.68282 5.71888 4.68113 5.70783 4.67611C5.69677 4.67109 5.68742 4.66297 5.68091 4.65272Z" fill="#002776"/>
<path fill-rule="evenodd" clip-rule="evenodd" d="M8.77231 4.97623C8.77131 5.00673 8.79856 5.00273 8.81506 5.00923C9.46067 5.26034 10.061 5.61498 10.5926 6.05923C10.5773 6.19641 10.547 6.33147 10.5021 6.46198C10.1893 6.20248 9.86906 5.95523 9.51481 5.75323C8.39506 5.11548 7.19606 4.86273 5.91431 4.99823C5.78931 5.01098 5.66431 5.02798 5.53931 5.04323C5.57156 4.90798 5.61256 4.77523 5.67981 4.65223C6.61556 4.52598 7.53506 4.59773 8.43731 4.87698C8.54931 4.91173 8.65606 4.96773 8.77556 4.97823L8.77231 4.97548" fill="#FEFEFE"/>
<path fill-rule="evenodd" clip-rule="evenodd" d="M9.93738 6.58753C9.86213 6.57953 9.94388 6.67178 9.86788 6.66978C9.80163 6.66878 9.79812 6.61578 9.76562 6.58628C9.79063 6.56028 9.83488 6.55503 9.84888 6.51453C9.85838 6.55728 9.89863 6.56628 9.93738 6.58753Z" fill="#D9DFEA"/>
<path fill-rule="evenodd" clip-rule="evenodd" d="M7.09852 7.05C7.02777 7.05825 7.08702 7.13525 7.02777 7.1365C6.96802 7.13775 6.93727 7.0935 6.92527 7.04775C6.92102 7.03475 6.97852 7.00575 7.00677 6.98425C7.01027 7.0295 7.05727 7.0275 7.09852 7.05Z" fill="#E9ECF3"/>
<path fill-rule="evenodd" clip-rule="evenodd" d="M8.035 6.91076C7.93675 6.97426 8.016 6.83076 7.95825 6.84476C7.977 6.81476 8.03 6.82176 8.0335 6.77576C8.0585 6.80176 8.07975 6.83176 8.1195 6.83726C8.06275 6.82951 8.1245 6.95551 8.035 6.91076Z" fill="#EDEFF5"/>
<path fill-rule="evenodd" clip-rule="evenodd" d="M6.00482 5.22628C5.98132 5.27103 5.96357 5.32103 5.89232 5.29103C5.85582 5.27578 5.89482 5.22578 5.85107 5.22103L5.93207 5.14978L5.94957 5.18453C5.95607 5.21428 6.01532 5.17478 6.00482 5.22628Z" fill="#F0F2F6"/>
<path fill-rule="evenodd" clip-rule="evenodd" d="M6.23172 6.31241C6.19447 6.32416 6.22122 6.42216 6.14122 6.37941C6.13322 6.37541 6.09822 6.39466 6.10472 6.38341C6.12572 6.34241 6.07872 6.32241 6.08597 6.28966C6.12972 6.30866 6.12722 6.22866 6.17197 6.25016C6.17522 6.25266 6.17522 6.26266 6.17747 6.26916C6.18222 6.30016 6.24272 6.26141 6.23172 6.31241Z" fill="#ECEFF4"/>
<path fill-rule="evenodd" clip-rule="evenodd" d="M5.8384 6.60194C5.76165 6.62869 5.8189 6.53594 5.7749 6.53669C5.7954 6.51944 5.8184 6.48719 5.8389 6.48844C5.8634 6.48969 5.8859 6.51994 5.9084 6.53719C5.8749 6.54844 5.91015 6.63919 5.8384 6.60194Z" fill="#D9DFEA"/>
<path fill-rule="evenodd" clip-rule="evenodd" d="M8.80487 7.48666C8.72362 7.52366 8.80262 7.41441 8.74837 7.42866C8.74287 7.38691 8.81062 7.41216 8.80212 7.36816L8.87536 7.42691C8.84561 7.44041 8.87537 7.52541 8.80487 7.48666Z" fill="#D8DEEA"/>
<path fill-rule="evenodd" clip-rule="evenodd" d="M9.32495 7.42651C9.2577 7.45451 9.29895 7.36401 9.2627 7.35501C9.2872 7.33926 9.31295 7.32251 9.33695 7.30626C9.33895 7.34326 9.3897 7.32976 9.3952 7.36251C9.35745 7.36476 9.3967 7.44626 9.32495 7.42651ZM9.79245 7.09001C9.71595 7.12876 9.77245 7.02701 9.7287 7.03126C9.73745 6.99876 9.7877 7.01101 9.7907 6.97351L9.86245 7.02726C9.8187 7.02601 9.87245 7.13326 9.79245 7.09001Z" fill="#DCE1EC"/>
<path fill-rule="evenodd" clip-rule="evenodd" d="M6.69561 6.62327C6.61561 6.66852 6.66786 6.56727 6.63086 6.56527C6.63461 6.52802 6.69111 6.54402 6.69361 6.50452C6.70111 6.54102 6.74961 6.53052 6.76011 6.56327C6.71236 6.55627 6.78036 6.67102 6.69561 6.62327Z" fill="#D4DAE7"/>
<path fill-rule="evenodd" clip-rule="evenodd" d="M7.0198 5.86371C6.97455 5.86071 7.03255 5.78945 6.97705 5.79395C6.98655 5.75395 7.0293 5.76221 7.0528 5.74146C7.0648 5.76671 7.0988 5.77246 7.10055 5.80871C7.10455 5.87496 7.0458 5.84071 7.0198 5.86371Z" fill="#F2F4F7"/>
<path fill-rule="evenodd" clip-rule="evenodd" d="M8.33745 6.3917C8.2682 6.43145 8.30471 6.3427 8.27271 6.33295L8.33745 6.2782C8.33895 6.3152 8.4097 6.30695 8.3897 6.33545C8.3777 6.35245 8.41645 6.4302 8.33745 6.3917Z" fill="#E6E9F1"/>
<path fill-rule="evenodd" clip-rule="evenodd" d="M8.02751 6.16892C7.94851 6.17692 8.03001 6.10517 7.97876 6.10692C7.99876 6.08817 8.01801 6.05617 8.04051 6.05417C8.06001 6.05217 8.08251 6.08392 8.10376 6.10142C8.07601 6.12817 8.08026 6.19717 8.02751 6.16892Z" fill="#EAEDF3"/>
<path fill-rule="evenodd" clip-rule="evenodd" d="M9.94552 6.75244C9.96177 6.79544 9.99377 6.80119 10.0188 6.81644C9.99327 6.84519 9.98327 6.88919 9.93027 6.88919C9.87602 6.88969 9.91277 6.84844 9.90052 6.82919C9.87027 6.78119 9.98202 6.82169 9.94552 6.75244Z" fill="#E4E8F0"/>
<path fill-rule="evenodd" clip-rule="evenodd" d="M9.37945 7.62347C9.36045 7.65172 9.37345 7.67872 9.32295 7.67972C9.2652 7.68072 9.2837 7.63847 9.2812 7.62547C9.27645 7.60397 9.30945 7.58347 9.32845 7.58772C9.34495 7.59072 9.37695 7.59997 9.37945 7.62347Z" fill="#CED5E4"/>
<path fill-rule="evenodd" clip-rule="evenodd" d="M6.67838 6.82242C6.63713 6.82717 6.67138 6.88118 6.61913 6.87943C6.57138 6.87793 6.57838 6.84567 6.57313 6.82617C6.56488 6.79892 6.60513 6.79967 6.61413 6.77917C6.63313 6.79242 6.65238 6.80567 6.67838 6.82242Z" fill="#DAE0EB"/>
<path fill-rule="evenodd" clip-rule="evenodd" d="M9.26733 7.10795C9.285 7.09495 9.30308 7.08228 9.32158 7.06995C9.32308 7.0977 9.38283 7.0817 9.36283 7.1172C9.35458 7.13145 9.37483 7.17045 9.32308 7.16695C9.27658 7.1637 9.28758 7.1312 9.26733 7.10795Z" fill="#D8DEE9"/>
<path fill-rule="evenodd" clip-rule="evenodd" d="M9.07741 7.19374C9.06841 7.24299 9.04041 7.25099 9.00966 7.25674C8.95741 7.26549 8.99666 7.22624 8.98816 7.21124C8.96616 7.17374 9.02166 7.18099 9.02816 7.15649C9.04266 7.17549 9.07591 7.17499 9.07741 7.19374Z" fill="#CBD2E3"/>
<path fill-rule="evenodd" clip-rule="evenodd" d="M8.78501 5.5725C8.76751 5.58075 8.79077 5.6225 8.75327 5.6105C8.72477 5.60075 8.68977 5.58725 8.69227 5.55225C8.69327 5.53875 8.72727 5.5275 8.74627 5.51575C8.74952 5.541 8.80351 5.53275 8.78501 5.5725Z" fill="#D1D8E6"/>
<path fill-rule="evenodd" clip-rule="evenodd" d="M10.1996 6.66894C10.1526 6.68744 10.1739 6.64869 10.1656 6.63744C10.1341 6.59469 10.1964 6.60094 10.1996 6.57544C10.2189 6.58819 10.2564 6.60269 10.2549 6.61369C10.2538 6.62798 10.2476 6.64141 10.2375 6.65154C10.2273 6.66167 10.2139 6.66785 10.1996 6.66894Z" fill="#DADFEA"/>
<path fill-rule="evenodd" clip-rule="evenodd" d="M7.78231 6.28748C7.78231 6.31648 7.84081 6.30498 7.82106 6.34123C7.81306 6.35598 7.83006 6.39548 7.78956 6.38723C7.75881 6.38098 7.72781 6.36298 7.72681 6.33248C7.72681 6.31823 7.76231 6.30298 7.78231 6.28748Z" fill="#CAD2E2"/>
<path fill-rule="evenodd" clip-rule="evenodd" d="M8.58252 7.19203C8.55952 7.18128 8.55852 7.15103 8.56002 7.13653C8.56252 7.11728 8.58827 7.09128 8.61027 7.10178C8.62377 7.10828 8.66202 7.10453 8.65277 7.13953C8.64427 7.17303 8.61077 7.17778 8.58252 7.19203Z" fill="#D0D7E5"/>
<path fill-rule="evenodd" clip-rule="evenodd" d="M9.5498 7.14793C9.5508 7.14768 9.5683 7.12343 9.58805 7.12293C9.6023 7.12243 9.6168 7.15193 9.63205 7.16843C9.61155 7.17418 9.62905 7.21193 9.58855 7.21143C9.55205 7.21068 9.55205 7.19418 9.5498 7.14793Z" fill="#EFF2F6"/>
<path fill-rule="evenodd" clip-rule="evenodd" d="M7.94152 6.51491C7.93477 6.54191 7.93477 6.55866 7.91077 6.55816C7.88627 6.55766 7.87427 6.54866 7.87477 6.52366C7.87477 6.50391 7.88777 6.49016 7.90252 6.49141C7.91952 6.49266 7.94377 6.49741 7.94152 6.51491Z" fill="#CCD4E3"/>
<path fill-rule="evenodd" clip-rule="evenodd" d="M6.40849 6.12598C6.42049 6.13898 6.43424 6.14923 6.43949 6.16248C6.44399 6.17348 6.43699 6.19023 6.42149 6.19198C6.40424 6.19348 6.38574 6.19298 6.38024 6.17148C6.37524 6.15048 6.39349 6.14298 6.40849 6.12598Z" fill="#E0E5EE"/>
<path fill-rule="evenodd" clip-rule="evenodd" d="M6.23174 6.31242C6.22499 6.28367 6.18049 6.30192 6.17749 6.26892C6.18699 6.29392 6.26124 6.23817 6.23174 6.31242Z" fill="#7085B1"/>
<path fill-rule="evenodd" clip-rule="evenodd" d="M6.00496 5.2262C5.99946 5.19545 5.95221 5.2197 5.94971 5.18445C5.96296 5.20545 6.02996 5.1557 6.00496 5.2262Z" fill="#5C75A7"/>
<path fill-rule="evenodd" clip-rule="evenodd" d="M8.77745 4.97897C8.7822 4.95997 8.79745 4.92897 8.79145 4.92322C8.70995 4.85072 8.8187 4.83847 8.83495 4.82372C8.8647 4.79497 8.85995 4.91622 8.93845 4.83947C8.8962 4.93322 8.8397 4.96022 8.7747 4.97622L8.77745 4.97897Z" fill="#E7EAF2"/>
<path fill-rule="evenodd" clip-rule="evenodd" d="M6.36772 4.9012C6.28822 4.89345 6.35897 4.78995 6.34172 4.72995C6.32022 4.65245 6.37672 4.65345 6.43172 4.6532C6.51697 4.6527 6.56522 4.6887 6.56522 4.7787C6.56497 4.8672 6.52397 4.9022 6.36772 4.9012Z" fill="#15A24A"/>
<path fill-rule="evenodd" clip-rule="evenodd" d="M9.4052 5.40068C9.3877 5.45418 9.32295 5.48768 9.31195 5.55368C9.31095 5.56243 9.28595 5.56067 9.2812 5.53517C9.2612 5.41567 9.2602 5.41593 9.17195 5.47993C9.16495 5.48518 9.1527 5.48993 9.14595 5.48768C9.13295 5.48193 9.1277 5.46892 9.13545 5.45417C9.1647 5.39717 9.1922 5.33868 9.22495 5.28343C9.24695 5.24693 9.2737 5.27743 9.2952 5.28793C9.34245 5.31118 9.4007 5.32443 9.4052 5.40068Z" fill="#13A248"/>
<path fill-rule="evenodd" clip-rule="evenodd" d="M9.62888 5.59517C9.58288 5.61367 9.56063 5.57892 9.53113 5.56642C9.51113 5.55792 9.49238 5.54992 9.47888 5.57217C9.46413 5.59567 9.47888 5.60917 9.49913 5.61967C9.51463 5.62742 9.53113 5.63342 9.54263 5.64567C9.56288 5.66692 9.62638 5.66117 9.60063 5.70642C9.58038 5.74242 9.54638 5.70042 9.52388 5.68717C9.48513 5.66342 9.40838 5.65042 9.41663 5.60917C9.42938 5.54292 9.46713 5.47092 9.51738 5.42542C9.55763 5.38892 9.60213 5.45792 9.64738 5.47517C9.66688 5.48242 9.70013 5.48892 9.69438 5.51967C9.68888 5.55142 9.66538 5.53292 9.64738 5.52867C9.60513 5.51892 9.56413 5.44742 9.53088 5.49692C9.51088 5.52642 9.59313 5.53867 9.61913 5.57117C9.62313 5.57592 9.62413 5.58242 9.62888 5.59517ZM10.1676 5.94867C10.1751 6.00717 10.1514 6.04692 10.0901 6.03692C10.0266 6.02642 9.97838 5.98767 9.96738 5.91817C9.96638 5.91117 9.97488 5.89692 9.98188 5.89492C9.98591 5.8936 9.99018 5.89318 9.99439 5.89368C9.9986 5.89419 10.0026 5.89561 10.0062 5.89786C10.0098 5.9001 10.0129 5.9031 10.0152 5.90665C10.0175 5.9102 10.019 5.91422 10.0196 5.91842C10.0276 5.96617 10.0526 5.98742 10.1029 5.98842C10.1126 5.91017 9.97138 5.87442 10.0526 5.79317C10.0934 5.75242 10.1431 5.78617 10.1786 5.81892C10.2114 5.84867 10.2514 5.88142 10.1916 5.92392C10.1831 5.91942 10.1716 5.91217 10.1654 5.91717C10.1526 5.92567 10.1651 5.93792 10.1676 5.94867Z" fill="#11A147"/>
<path fill-rule="evenodd" clip-rule="evenodd" d="M8.44087 5.20421C8.41112 5.18746 8.41262 5.17146 8.41737 5.15396C8.42687 5.11671 8.40762 5.09721 8.37362 5.08671C8.33962 5.07571 8.31337 5.07721 8.30412 5.11971C8.30087 5.13871 8.29087 5.15196 8.27012 5.14496C8.24612 5.13621 8.25812 5.11671 8.26262 5.10246C8.27212 5.06971 8.28062 5.03671 8.29562 5.00546C8.30912 4.97421 8.29962 4.91696 8.34887 4.92071C8.40112 4.92446 8.45762 4.93696 8.49737 4.98021C8.51512 4.99921 8.52237 5.03196 8.50787 5.04621C8.46562 5.08971 8.46912 5.15121 8.44087 5.20421Z" fill="#0FA046"/>
<path fill-rule="evenodd" clip-rule="evenodd" d="M6.89814 4.88596C6.81739 4.91646 6.75364 4.89871 6.69139 4.89996C6.66314 4.90071 6.66064 4.87946 6.66064 4.85796C6.66231 4.83413 6.66298 4.8103 6.66264 4.78646C6.66564 4.65471 6.71239 4.62096 6.84189 4.65771C6.85639 4.66171 6.87014 4.66421 6.87114 4.68046C6.87114 4.70296 6.85489 4.70696 6.83489 4.70646C6.83206 4.7058 6.82889 4.70555 6.82539 4.70571C6.78664 4.71521 6.71714 4.67146 6.71589 4.72946C6.71439 4.77396 6.79014 4.74246 6.82889 4.75746C6.83406 4.75996 6.84073 4.76446 6.84889 4.77096C6.82439 4.81521 6.78364 4.79046 6.75214 4.79571C6.73339 4.79871 6.70889 4.79046 6.70614 4.82096C6.70264 4.85696 6.72764 4.85521 6.75214 4.85771C6.79389 4.86271 6.83914 4.84696 6.89814 4.88596Z" fill="#0B9F43"/>
<path fill-rule="evenodd" clip-rule="evenodd" d="M6.23447 4.90492C6.19097 4.89542 6.19697 4.87042 6.18947 4.85292C6.17647 4.82067 6.15072 4.82067 6.12247 4.82292C6.09022 4.82592 6.07272 4.83842 6.07547 4.87417C6.07747 4.89167 6.08447 4.91992 6.05197 4.91592C6.02397 4.91242 6.03197 4.88517 6.03047 4.86667C6.02797 4.83642 6.02497 4.80542 6.02797 4.77542C6.03197 4.74192 5.99997 4.69067 6.04822 4.67867C6.09797 4.66567 6.15547 4.65642 6.20722 4.68117C6.22972 4.69192 6.24747 4.71817 6.23922 4.73942C6.22022 4.79292 6.23522 4.84717 6.23447 4.90492Z" fill="#079D3F"/>
<path fill-rule="evenodd" clip-rule="evenodd" d="M5.70654 4.81992C5.71454 4.75217 5.74429 4.69717 5.81854 4.69967C5.88979 4.70192 5.92779 4.75142 5.92779 4.82267C5.92779 4.89342 5.89479 4.94217 5.81954 4.94167C5.74304 4.94117 5.71704 4.88567 5.70654 4.81992Z" fill="#15A24A"/>
<path fill-rule="evenodd" clip-rule="evenodd" d="M10.466 6.08992C10.459 6.15717 10.4258 6.20792 10.349 6.21467C10.2783 6.22042 10.2408 6.17992 10.2353 6.11342C10.229 6.04617 10.295 5.98192 10.3623 5.98242C10.4213 5.98292 10.4645 6.02567 10.466 6.08992Z" fill="#11A147"/>
<path fill-rule="evenodd" clip-rule="evenodd" d="M9.06236 5.30748C9.11886 5.35298 9.05036 5.38298 9.04786 5.42123C9.00086 5.39948 8.94211 5.40823 8.90411 5.36698C8.86361 5.32298 8.87111 5.27323 8.89761 5.22473C8.92686 5.17348 8.97186 5.15148 9.02711 5.17098C9.07761 5.18898 9.11536 5.22298 9.09086 5.28698C9.05211 5.29398 9.02036 5.24298 8.96586 5.27723C9.00211 5.29398 9.04561 5.27073 9.06236 5.30748Z" fill="#0C9F43"/>
<path fill-rule="evenodd" clip-rule="evenodd" d="M7.70241 4.79243C7.66941 4.83118 7.64516 4.81618 7.62241 4.81668C7.60041 4.81668 7.57691 4.79843 7.54966 4.82118C7.57416 4.86118 7.63341 4.83543 7.65641 4.87518C7.65316 4.88093 7.65166 4.88868 7.64741 4.89268C7.61441 4.91868 7.56166 4.85568 7.54116 4.90768C7.52241 4.95243 7.57166 4.93693 7.59291 4.94443C7.61691 4.95393 7.64666 4.95043 7.67566 4.98293C7.60841 5.01243 7.52816 4.99868 7.50041 4.96618C7.45666 4.91493 7.48741 4.82393 7.52066 4.77843C7.55991 4.72468 7.63166 4.77718 7.70241 4.79243Z" fill="#19A44D"/>
<path fill-rule="evenodd" clip-rule="evenodd" d="M8.12856 5.00997C8.07181 5.00397 8.00731 4.96397 7.99106 5.05747C7.99056 5.06047 7.97081 5.06472 7.96481 5.06072C7.95806 5.05697 7.95431 5.04297 7.95556 5.03497C7.97031 4.97572 7.97781 4.91222 8.00406 4.85897C8.03456 4.79897 8.08631 4.84972 8.12906 4.85547C8.18006 4.86222 8.20831 4.89322 8.20281 4.94697C8.19781 4.99322 8.16281 5.00572 8.12856 5.00997Z" fill="#0D9F44"/>
<path fill-rule="evenodd" clip-rule="evenodd" d="M8.80479 5.15317C8.79929 5.22842 8.76229 5.28042 8.68704 5.28267C8.61979 5.28517 8.58204 5.23792 8.58354 5.17092C8.58554 5.09842 8.62079 5.04592 8.69904 5.04367C8.77079 5.04117 8.79854 5.08942 8.80479 5.15317Z" fill="#0FA046"/>
<path fill-rule="evenodd" clip-rule="evenodd" d="M7.11969 4.8817C7.11144 4.89945 7.10469 4.9247 7.08094 4.91895C7.03969 4.9092 7.05819 4.86945 7.04819 4.84345C7.01769 4.8137 7.02569 4.8547 7.01619 4.8622C7.01269 4.8807 7.02119 4.90895 6.99619 4.9127C6.96544 4.91645 6.97269 4.88695 6.97344 4.86945C6.97594 4.83295 6.97644 4.7947 6.98644 4.7597C6.99519 4.7297 6.96344 4.67445 7.02319 4.67395C7.07594 4.6737 7.06444 4.72745 7.07119 4.7597C7.07819 4.7967 7.08194 4.81245 7.11219 4.7757C7.14344 4.76745 7.14994 4.7902 7.15719 4.8122C7.16119 4.8442 7.14694 4.86645 7.11969 4.8817Z" fill="#0EA044"/>
<path fill-rule="evenodd" clip-rule="evenodd" d="M9.78229 5.8C9.80079 5.8 9.81954 5.8245 9.83754 5.8035C9.85129 5.78775 9.83904 5.77225 9.82679 5.7595C9.81746 5.75 9.80846 5.74017 9.79979 5.73C9.77429 5.69925 9.73854 5.66975 9.77379 5.62525C9.80579 5.5845 9.84304 5.5945 9.88004 5.62025C9.88679 5.63325 9.88454 5.64575 9.87754 5.6575C9.85029 5.70025 9.90104 5.72625 9.90004 5.76275C9.90779 5.797 9.91279 5.8315 9.87504 5.85125C9.82804 5.87625 9.79179 5.85325 9.75729 5.82325C9.75354 5.8035 9.76079 5.79375 9.78229 5.8Z" fill="#10A146"/>
<path fill-rule="evenodd" clip-rule="evenodd" d="M9.06238 5.3075C9.04313 5.321 9.00438 5.27725 9.00563 5.31025C9.00813 5.36875 8.97888 5.3635 8.95163 5.34625C8.91488 5.3235 8.91288 5.2845 8.93613 5.2485C8.95863 5.21325 8.99038 5.19275 9.02888 5.2215C9.05238 5.23875 9.07013 5.26475 9.09038 5.287L9.06238 5.3075Z" fill="#ECF7F0"/>
<path fill-rule="evenodd" clip-rule="evenodd" d="M7.13606 4.82253C7.12884 4.80704 7.12083 4.79194 7.11206 4.77728C7.12081 4.75503 7.12881 4.73253 7.13931 4.71103C7.14881 4.69078 7.16531 4.67953 7.18856 4.68703C7.21456 4.69578 7.21256 4.71578 7.21106 4.73678C7.20556 4.79794 7.20048 4.85911 7.19581 4.92028C7.15931 4.94353 7.15006 4.92228 7.14406 4.89078C7.13956 4.86803 7.15131 4.84353 7.13606 4.82253Z" fill="#17A34C"/>
<path fill-rule="evenodd" clip-rule="evenodd" d="M9.90091 5.76247C9.87841 5.73947 9.85441 5.71772 9.83341 5.69322C9.80891 5.66422 9.81841 5.64647 9.85491 5.64172C9.90766 5.65347 9.93991 5.67897 9.92441 5.73947C9.91708 5.74714 9.90925 5.75481 9.90091 5.76247Z" fill="#D7EFE0"/>
<path fill-rule="evenodd" clip-rule="evenodd" d="M9.92448 5.7395C9.90023 5.708 9.89373 5.663 9.85498 5.64175L9.88098 5.62C9.92298 5.64975 9.99973 5.66675 9.92448 5.7395Z" fill="#2BAB5B"/>
<path fill-rule="evenodd" clip-rule="evenodd" d="M10.1677 5.94866C10.1644 5.94666 10.1602 5.94566 10.1587 5.94291C10.1387 5.90591 10.0724 5.87267 10.0949 5.83992C10.1232 5.80042 10.1527 5.84716 10.1682 5.88091C10.1752 5.89516 10.1837 5.90916 10.1917 5.92391C10.1834 5.93225 10.1754 5.9405 10.1677 5.94866Z" fill="#E6F5EC"/>
<path fill-rule="evenodd" clip-rule="evenodd" d="M9.7823 5.79994C9.77463 5.80777 9.7663 5.81561 9.7573 5.82344C9.7468 5.81594 9.7323 5.81069 9.72555 5.79994C9.7128 5.77569 9.6763 5.74344 9.71855 5.72444C9.75405 5.70744 9.75405 5.75269 9.76555 5.77469C9.7703 5.78394 9.7763 5.79169 9.7823 5.79994Z" fill="#29AA59"/>
<path fill-rule="evenodd" clip-rule="evenodd" d="M7.13613 4.82251C7.17263 4.83676 7.15338 4.86726 7.15388 4.89001C7.15588 4.92126 7.16688 4.93176 7.19613 4.92076C7.13513 4.97976 7.14288 4.90101 7.11938 4.88351C7.12563 4.86276 7.13038 4.84251 7.13613 4.82251Z" fill="#DDF1E4"/>
<path fill-rule="evenodd" clip-rule="evenodd" d="M7.01489 4.86248V4.78198C7.04939 4.79298 7.05039 4.81723 7.04689 4.84373L7.01489 4.86248Z" fill="#6FC690"/>
<path fill-rule="evenodd" clip-rule="evenodd" d="M6.39185 4.77994C6.39535 4.74344 6.37785 4.69594 6.4401 4.69994C6.4856 4.70269 6.5186 4.72094 6.5211 4.77294C6.5236 4.82894 6.49085 4.85169 6.4391 4.85544C6.37335 4.86069 6.4001 4.80894 6.39185 4.77994Z" fill="#F5FBF7"/>
<path fill-rule="evenodd" clip-rule="evenodd" d="M9.27488 5.32996C9.30088 5.34421 9.34063 5.34696 9.34913 5.38546C9.35338 5.40546 9.33613 5.41871 9.31838 5.41296C9.28538 5.40296 9.24164 5.40246 9.23714 5.35596C9.23589 5.34246 9.25038 5.32546 9.27488 5.32996Z" fill="#EFF8F3"/>
<path fill-rule="evenodd" clip-rule="evenodd" d="M8.46404 5.02252C8.45729 5.04852 8.43904 5.05752 8.41804 5.04977C8.38979 5.03952 8.34429 5.05077 8.34379 5.00127C8.34279 4.97552 8.36029 4.96777 8.38379 4.97552C8.41479 4.98552 8.45229 4.98427 8.46404 5.02252Z" fill="#DEF2E5"/>
<path fill-rule="evenodd" clip-rule="evenodd" d="M6.12863 4.71472C6.15313 4.71772 6.19188 4.70472 6.18938 4.74647C6.18688 4.78297 6.14988 4.77722 6.12338 4.77772C6.10213 4.77847 6.07163 4.78947 6.06963 4.75122C6.06813 4.70572 6.10363 4.71997 6.12863 4.71472Z" fill="#F3FAF5"/>
<path fill-rule="evenodd" clip-rule="evenodd" d="M5.81231 4.74951C5.85756 4.75251 5.88006 4.77951 5.88181 4.82201C5.88431 4.86001 5.86556 4.89251 5.82656 4.89601C5.78156 4.90026 5.76131 4.86601 5.75881 4.82426C5.75631 4.78576 5.77131 4.75776 5.81231 4.74951Z" fill="#F3FAF6"/>
<path fill-rule="evenodd" clip-rule="evenodd" d="M10.4163 6.09878C10.4098 6.14028 10.3848 6.16953 10.3365 6.16953C10.2978 6.16903 10.2833 6.14077 10.2873 6.10652C10.291 6.06002 10.3188 6.03003 10.366 6.03078C10.4033 6.03178 10.4178 6.05853 10.4163 6.09878Z" fill="#F9FCFA"/>
<path fill-rule="evenodd" clip-rule="evenodd" d="M8.06996 4.88692C8.09521 4.90242 8.14596 4.88642 8.15321 4.93642C8.15546 4.95542 8.13446 4.96517 8.11771 4.96142C8.08496 4.95417 8.03921 4.96592 8.03521 4.91317C8.03446 4.89692 8.04171 4.87942 8.06996 4.88692Z" fill="#E7F5EC"/>
<path fill-rule="evenodd" clip-rule="evenodd" d="M8.75483 5.15928C8.75008 5.20253 8.72883 5.23278 8.68508 5.23278C8.64208 5.23328 8.62683 5.20328 8.62883 5.16378C8.63233 5.12028 8.65708 5.09128 8.69933 5.08953C8.74133 5.08803 8.75483 5.12153 8.75483 5.15928Z" fill="#F5FBF7"/>
</svg>
