<svg width="84" height="84" viewBox="0 0 84 84" fill="none" xmlns="http://www.w3.org/2000/svg">
<path d="M42 38.5C50.75 38.5 58.1875 37.1292 64.3125 34.3875C70.4375 31.6458 73.5 28.35 73.5 24.5C73.5 20.65 70.4375 17.3542 64.3125 14.6125C58.1875 11.8708 50.75 10.5 42 10.5C33.25 10.5 25.8125 11.8708 19.6875 14.6125C13.5625 17.3542 10.5 20.65 10.5 24.5C10.5 28.35 13.5625 31.6458 19.6875 34.3875C25.8125 37.1292 33.25 38.5 42 38.5ZM42 47.25C44.3917 47.25 47.3818 47.0015 50.9705 46.5045C54.5592 46.0075 58.0148 45.206 61.3375 44.1C64.6602 42.994 67.5185 41.5508 69.9125 39.7705C72.3065 37.9902 73.5023 35.8167 73.5 33.25V42C73.5 44.5667 72.3042 46.7402 69.9125 48.5205C67.5208 50.3008 64.6625 51.744 61.3375 52.85C58.0125 53.956 54.5568 54.7587 50.9705 55.258C47.3842 55.7573 44.394 56.0047 42 56C39.606 55.9953 36.617 55.7468 33.033 55.2545C29.449 54.7622 25.9922 53.9607 22.6625 52.85C19.3328 51.7393 16.4745 50.2962 14.0875 48.5205C11.7005 46.7448 10.5047 44.5713 10.5 42V33.25C10.5 35.8167 11.6958 37.9902 14.0875 39.7705C16.4792 41.5508 19.3375 42.994 22.6625 44.1C25.9875 45.206 29.4443 46.0087 33.033 46.508C36.6217 47.0073 39.6107 47.2547 42 47.25ZM42 64.75C44.3917 64.75 47.3818 64.5015 50.9705 64.0045C54.5592 63.5075 58.0148 62.706 61.3375 61.6C64.6602 60.494 67.5185 59.0508 69.9125 57.2705C72.3065 55.4902 73.5023 53.3167 73.5 50.75V59.5C73.5 62.0667 72.3042 64.2402 69.9125 66.0205C67.5208 67.8008 64.6625 69.244 61.3375 70.35C58.0125 71.456 54.5568 72.2587 50.9705 72.758C47.3842 73.2573 44.394 73.5047 42 73.5C39.606 73.4953 36.617 73.2468 33.033 72.7545C29.449 72.2622 25.9922 71.4607 22.6625 70.35C19.3328 69.2393 16.4745 67.7962 14.0875 66.0205C11.7005 64.2448 10.5047 62.0713 10.5 59.5V50.75C10.5 53.3167 11.6958 55.4902 14.0875 57.2705C16.4792 59.0508 19.3375 60.494 22.6625 61.6C25.9875 62.706 29.4443 63.5087 33.033 64.008C36.6217 64.5073 39.6107 64.7547 42 64.75Z" fill="#525252"/>
</svg>
