<svg width="16" height="11" viewBox="0 0 16 11" fill="none" xmlns="http://www.w3.org/2000/svg">
<path d="M15.4 0.844971H6.5V1.68997H15.8475C15.746 1.37472 15.595 1.08722 15.4 0.844971Z" fill="#E6E7E8"/>
<path d="M13.5 0H6.5V0.845H15.4C14.9827 0.3225 14.296 0 13.5 0Z" fill="#EC1C24"/>
<path d="M6.5 1.68994V2.53494H15.9913C15.978 2.26244 15.9495 1.91794 15.8475 1.68994" fill="#EC1C24"/>
<path d="M15.9913 2.53503H6.5V3.38003H16V2.81678C16 2.76653 15.9967 2.71753 15.9952 2.66828C15.9942 2.65478 15.9928 2.62003 15.9913 2.53503Z" fill="#E6E7E8"/>
<path d="M6.5 4.225H16V3.38H6.5V4.225Z" fill="#EC1C24"/>
<path d="M6.5 5.06998H16V4.22498H6.5V5.06998Z" fill="#E6E7E8"/>
<path d="M6.5 5.06995H16V5.91495H6.5V5.06995Z" fill="#EC1C24"/>
<path d="M0 5.91504V6.76004H16V5.91504H6.5H0Z" fill="#E6E7E8"/>
<path d="M0 6.76001H16V7.60501H0V6.76001Z" fill="#EC1C24"/>
<path d="M0.00125 8.12473C0.00125 8.12473 -0.001 8.32948 0.005 8.44998H15.995C16.002 8.32648 15.9987 8.12473 15.9987 8.12473L16 7.60498H0L0.00125 8.12473Z" fill="#E6E7E8"/>
<path d="M2.50002 11H13.5C14.2983 11 14.9618 10.71 15.415 10.14H0.58252C1.05052 10.7225 1.72652 11 2.49877 11" fill="#EC1C24"/>
<path d="M0.583867 10.14H15.4164C15.6141 9.88878 15.7617 9.60193 15.8514 9.29504H0.151367C0.242839 9.60095 0.389875 9.8874 0.585117 10.14" fill="#E6E7E8"/>
<path d="M0.149883 9.29495H15.8499C15.9317 9.02007 15.9804 8.73639 15.9949 8.44995H0.00488281C0.0296328 8.73895 0.0526328 8.9572 0.149883 9.29495Z" fill="#EC1C24"/>
<path d="M6.5 0H2.5C0.84325 0 0 1.23125 0 2.75V5.915H6.5V0Z" fill="#176496"/>
<path d="M0.699516 1.49394L0.835516 1.38944L0.971266 1.49394L0.918516 1.32594L1.05377 1.22319H0.886766L0.835016 1.05444L0.783516 1.22319H0.616766L0.752516 1.32594L0.699516 1.49394ZM1.59802 1.49394L1.73402 1.38944L1.86977 1.49394L1.81727 1.32594L1.95227 1.22319H1.78552L1.73377 1.05444L1.68227 1.22319H1.51502L1.65077 1.32594L1.59802 1.49394ZM2.58927 1.49394L2.72502 1.38944L2.86102 1.49394L2.80827 1.32594L2.94327 1.22319H2.77752L2.72502 1.05444L2.67327 1.22319H2.50752L2.64177 1.32594L2.58927 1.49394ZM3.57327 1.49394L3.70902 1.38944L3.84502 1.49394L3.79252 1.32594L3.92752 1.22319H3.76002L3.70902 1.05444L3.65752 1.22319H3.49052L3.62602 1.32594L3.57327 1.49394ZM4.56077 1.49394L4.69677 1.38944L4.83252 1.49394L4.78002 1.32594L4.91527 1.22319H4.74802L4.69652 1.05444L4.64502 1.22319H4.47827L4.61327 1.32594L4.56077 1.49394ZM1.17777 1.93269L1.31352 1.82844L1.44927 1.93269L1.39702 1.76494L1.53202 1.66219H1.36502L1.31327 1.49369L1.26252 1.66219H1.09502L1.23027 1.76494L1.17777 1.93269ZM2.07652 1.93269L2.21227 1.82844L2.34802 1.93269L2.29552 1.76494L2.43052 1.66219H2.26252L2.21227 1.49369L2.16052 1.66219H1.99377L2.12902 1.76494L2.07652 1.93269ZM3.06777 1.93269L3.20327 1.82844L3.33902 1.93269L3.28652 1.76494L3.42177 1.66219H3.25502L3.20327 1.49369L3.15152 1.66219H2.98452L3.11977 1.76494L3.06777 1.93269ZM4.05127 1.93269L4.18727 1.82844L4.32327 1.93269L4.27002 1.76494L4.40552 1.66219H4.23877L4.18702 1.49369L4.13577 1.66219H3.96877L4.10402 1.76494L4.05127 1.93269ZM5.04002 1.93269L5.17477 1.82844L5.31052 1.93269L5.25752 1.76494L5.39302 1.66219H5.22652L5.17452 1.49369L5.12327 1.66219H4.95627L5.09152 1.76494L5.04002 1.93269ZM5.59677 1.49394L5.73252 1.38944L5.86852 1.49394L5.81577 1.32594L5.95077 1.22319H5.78502L5.73227 1.05444L5.68077 1.22319H5.51252L5.64927 1.32594L5.59677 1.49394ZM0.686266 5.00494L0.822266 4.90169L0.958016 5.00494L0.905516 4.83844L1.04052 4.73544L0.873766 4.73594L0.821766 4.56744L0.770766 4.73594L0.603516 4.73544L0.738766 4.83844L0.686266 5.00494ZM1.58502 5.00494L1.72077 4.90169L1.85677 5.00494L1.80402 4.83844L1.93902 4.73544L1.77252 4.73594L1.72052 4.56744L1.66927 4.73594L1.50252 4.73544L1.63752 4.83844L1.58502 5.00494ZM2.57627 5.00494L2.71202 4.90169L2.84802 5.00494L2.79527 4.83844L2.93027 4.73544L2.76252 4.73594L2.71177 4.56744L2.66027 4.73594L2.49352 4.73544L2.62877 4.83844L2.57627 5.00494ZM3.56027 5.00494L3.69602 4.90169L3.83177 5.00494L3.78002 4.83844L3.91427 4.73544L3.74727 4.73594L3.69577 4.56744L3.64427 4.73594L3.47752 4.73544L3.61252 4.83844L3.56027 5.00494ZM4.54752 5.00494L4.68352 4.90169L4.81952 5.00494L4.76752 4.83844L4.90177 4.73544L4.73502 4.73594L4.68327 4.56744L4.63202 4.73594L4.46502 4.73544L4.60002 4.83844L4.54752 5.00494ZM5.58352 5.00494L5.71927 4.90169L5.85527 5.00494L5.80252 4.83844L5.93777 4.73544L5.77002 4.73594L5.71902 4.56744L5.66752 4.73594L5.50002 4.73544L5.63602 4.83844L5.58352 5.00494ZM0.699516 2.37194L0.835516 2.26744L0.971266 2.37194L0.918516 2.20394L1.05377 2.10119L0.886766 2.10169L0.835016 1.93269L0.783516 2.10169L0.616766 2.10119L0.752516 2.20394L0.699516 2.37194ZM1.59802 2.37194L1.73402 2.26744L1.86977 2.37194L1.81727 2.20394L1.95227 2.10119L1.78552 2.10169L1.73377 1.93269L1.68227 2.10169L1.51502 2.10119L1.65077 2.20394L1.59802 2.37194ZM2.58927 2.37194L2.72502 2.26744L2.86102 2.37194L2.80827 2.20394L2.94327 2.10119L2.77752 2.10169L2.72502 1.93269L2.67327 2.10169L2.50752 2.10119L2.64177 2.20394L2.58927 2.37194ZM3.57327 2.37194L3.70902 2.26744L3.84502 2.37194L3.79252 2.20394L3.92752 2.10119L3.76002 2.10169L3.70902 1.93269L3.65752 2.10169L3.49052 2.10119L3.62602 2.20394L3.57327 2.37194ZM4.56077 2.37194L4.69677 2.26744L4.83252 2.37194L4.78002 2.20394L4.91527 2.10119L4.74802 2.10169L4.69652 1.93269L4.64502 2.10169L4.47827 2.10119L4.61327 2.20394L4.56077 2.37194ZM1.17777 2.81094L1.31352 2.70669L1.44927 2.81094L1.39702 2.64319L1.53202 2.53994H1.36502L1.31327 2.37194L1.26252 2.53994H1.09502L1.23027 2.64319L1.17777 2.81094ZM2.07652 2.81094L2.21227 2.70669L2.34802 2.81094L2.29552 2.64319L2.43052 2.53994H2.26252L2.21227 2.37194L2.16052 2.53994H1.99377L2.12902 2.64319L2.07652 2.81094ZM3.06777 2.81094L3.20327 2.70669L3.33902 2.81094L3.28652 2.64319L3.42177 2.53994H3.25502L3.20327 2.37194L3.15152 2.53994H2.98452L3.11977 2.64319L3.06777 2.81094ZM4.05127 2.81094L4.18727 2.70669L4.32327 2.81094L4.27002 2.64319L4.40552 2.53994H4.23877L4.18702 2.37194L4.13577 2.53994H3.96877L4.10402 2.64319L4.05127 2.81094ZM5.04002 2.81094L5.17477 2.70669L5.31052 2.81094L5.25752 2.64319L5.39302 2.53994H5.22652L5.17452 2.37194L5.12327 2.53994H4.95627L5.09152 2.64319L5.04002 2.81094ZM5.59677 2.37194L5.73252 2.26744L5.86852 2.37194L5.81577 2.20394L5.95077 2.10119L5.78502 2.10169L5.73227 1.93269L5.68077 2.10169L5.51252 2.10119L5.64927 2.20394L5.59677 2.37194ZM0.686266 3.24994L0.822266 3.14569L0.958016 3.24994L0.905266 3.08244L1.04052 2.97944L0.873516 2.97994L0.821766 2.81094L0.770766 2.97994L0.603516 2.97944L0.738766 3.08244L0.686266 3.24994ZM1.58502 3.24994L1.72077 3.14569L1.85677 3.24994L1.80402 3.08244L1.93902 2.97944L1.77252 2.97994L1.72052 2.81094L1.66927 2.97994L1.50252 2.97944L1.63727 3.08244L1.58502 3.24994ZM2.57627 3.24994L2.71202 3.14569L2.84777 3.24994L2.79527 3.08244L2.93027 2.97944L2.76252 2.97994L2.71177 2.81094L2.66027 2.97994L2.49352 2.97944L2.62877 3.08244L2.57627 3.24994ZM3.56027 3.24994L3.69577 3.14569L3.83177 3.24994L3.78002 3.08244L3.91427 2.97944L3.74727 2.97994L3.69577 2.81094L3.64427 2.97994L3.47752 2.97944L3.61252 3.08244L3.56027 3.24994ZM4.54752 3.24994L4.68352 3.14569L4.81927 3.24994L4.76752 3.08244L4.90177 2.97944L4.73477 2.97994L4.68327 2.81094L4.63202 2.97994L4.46502 2.97944L4.60002 3.08244L4.54752 3.24994ZM1.16452 3.68894L1.30027 3.58494L1.43602 3.68894L1.38377 3.52244L1.51852 3.41894H1.35152L1.30002 3.24994L1.24877 3.41894H1.08177L1.21702 3.52244L1.16452 3.68894ZM2.06327 3.68894L2.19902 3.58494L2.33477 3.68894L2.28227 3.52244L2.41727 3.41894H2.25002L2.19877 3.24994L2.14727 3.41894H1.98027L2.11577 3.52244L2.06327 3.68894ZM3.05477 3.68894L3.19002 3.58494L3.32602 3.68894L3.27252 3.52244L3.40852 3.41894H3.24177L3.19002 3.24994L3.13852 3.41894H2.97152L3.10677 3.52244L3.05477 3.68894ZM4.03752 3.68894L4.17402 3.58494L4.31002 3.68894L4.25752 3.52244L4.39227 3.41894H4.22552L4.17377 3.24994L4.12252 3.41894H3.95552L4.09077 3.52244L4.03752 3.68894ZM5.02502 3.68894L5.16152 3.58494L5.29752 3.68894L5.24477 3.52244L5.38027 3.41894H5.21352L5.16152 3.24994L5.11002 3.41894H4.94302L5.07827 3.52244L5.02502 3.68894ZM5.58352 3.24994L5.71927 3.14569L5.85502 3.24994L5.80252 3.08244L5.93777 2.97944L5.77002 2.97994L5.71902 2.81094L5.66752 2.97994L5.50002 2.97944L5.63602 3.08244L5.58352 3.24994ZM0.686266 4.12819L0.822266 4.02494L0.958016 4.12819L0.905266 3.96044L1.04052 3.85744L0.873516 3.85794L0.821766 3.68894L0.770766 3.85794L0.603516 3.85744L0.738766 3.96044L0.686266 4.12819ZM1.58502 4.12819L1.72077 4.02494L1.85677 4.12819L1.80402 3.96044L1.93902 3.85744L1.77252 3.85794L1.72052 3.68894L1.66927 3.85794L1.50252 3.85744L1.63727 3.96044L1.58502 4.12819ZM2.57627 4.12819L2.71202 4.02494L2.84777 4.12819L2.79527 3.96044L2.93027 3.85744L2.76252 3.85794L2.71177 3.68894L2.66027 3.85794L2.49352 3.85744L2.62877 3.96044L2.57627 4.12819ZM3.56027 4.12819L3.69577 4.02494L3.83177 4.12819L3.78002 3.96044L3.91427 3.85744L3.74727 3.85794L3.69577 3.68894L3.64427 3.85794L3.47752 3.85744L3.61252 3.96044L3.56027 4.12819ZM4.54752 4.12819L4.68352 4.02494L4.81927 4.12819L4.76752 3.96044L4.90177 3.85744L4.73477 3.85794L4.68327 3.68894L4.63202 3.85794L4.46502 3.85744L4.60002 3.96044L4.54752 4.12819ZM1.16452 4.56744L1.30027 4.46294L1.43602 4.56744L1.38377 4.39944L1.51852 4.29744H1.35152L1.30002 4.12819L1.24877 4.29744H1.08177L1.21702 4.39944L1.16452 4.56744ZM2.06327 4.56744L2.19902 4.46294L2.33477 4.56744L2.28227 4.39944L2.41727 4.29744H2.25002L2.19877 4.12819L2.14727 4.29744H1.98027L2.11577 4.39944L2.06327 4.56744ZM3.05477 4.56744L3.19002 4.46294L3.32602 4.56744L3.27252 4.39944L3.40852 4.29744H3.24177L3.19002 4.12819L3.13852 4.29744H2.97152L3.10677 4.39944L3.05477 4.56744ZM4.03752 4.56744L4.17402 4.46294L4.31002 4.56744L4.25752 4.39944L4.39227 4.29744H4.22552L4.17377 4.12819L4.12252 4.29744H3.95552L4.09077 4.39944L4.03752 4.56744ZM5.02502 4.56744L5.16152 4.46294L5.29752 4.56744L5.24477 4.39944L5.38027 4.29744H5.21352L5.16152 4.12819L5.11002 4.29744H4.94302L5.07827 4.39944L5.02502 4.56744ZM5.58352 4.12819L5.71927 4.02494L5.85502 4.12819L5.80252 3.96044L5.93777 3.85744L5.77002 3.85794L5.71902 3.68894L5.66752 3.85794L5.50002 3.85744L5.63602 3.96044L5.58352 4.12819Z" fill="white"/>
</svg>
