<svg width="80" height="76" viewBox="0 0 80 76" fill="none" xmlns="http://www.w3.org/2000/svg">
<g filter="url(#filter0_d_6_105)">
<rect x="4" width="72" height="68" rx="12" fill="#373737"/>
</g>
<path d="M33.9219 57.6979C38.2604 57.6979 41.7604 54.1979 41.7604 49.8594V42.0208H33.9219C29.5833 42.0208 26.0833 45.5208 26.0833 49.8594C26.0833 54.1979 29.5833 57.6979 33.9219 57.6979Z" fill="#0ACF83"/>
<path d="M26.0833 34.1823C26.0833 29.8438 29.5833 26.3438 33.9219 26.3438H41.7604V42.0208H33.9219C29.5833 42.0208 26.0833 38.5208 26.0833 34.1823Z" fill="#A259FF"/>
<path d="M26.0833 18.5052C26.0833 14.1667 29.5833 10.6667 33.9219 10.6667H41.7604V26.3438H33.9219C29.5833 26.3438 26.0833 22.8438 26.0833 18.5052Z" fill="#F24E1E"/>
<path d="M41.7604 10.6667H49.5989C53.9375 10.6667 57.4375 14.1667 57.4375 18.5052C57.4375 22.8438 53.9375 26.3438 49.5989 26.3438H41.7604V10.6667Z" fill="#FF7262"/>
<path d="M57.4375 34.1823C57.4375 38.5208 53.9375 42.0208 49.5989 42.0208C45.2604 42.0208 41.7604 38.5208 41.7604 34.1823C41.7604 29.8438 45.2604 26.3438 49.5989 26.3438C53.9375 26.3438 57.4375 29.8438 57.4375 34.1823Z" fill="#1ABCFE"/>
<defs>
<filter id="filter0_d_6_105" x="0" y="0" width="80" height="76" filterUnits="userSpaceOnUse" color-interpolation-filters="sRGB">
<feFlood flood-opacity="0" result="BackgroundImageFix"/>
<feColorMatrix in="SourceAlpha" type="matrix" values="0 0 0 0 0 0 0 0 0 0 0 0 0 0 0 0 0 0 127 0" result="hardAlpha"/>
<feOffset dy="4"/>
<feGaussianBlur stdDeviation="2"/>
<feComposite in2="hardAlpha" operator="out"/>
<feColorMatrix type="matrix" values="0 0 0 0 0 0 0 0 0 0 0 0 0 0 0 0 0 0 0.25 0"/>
<feBlend mode="normal" in2="BackgroundImageFix" result="effect1_dropShadow_6_105"/>
<feBlend mode="normal" in="SourceGraphic" in2="effect1_dropShadow_6_105" result="shape"/>
</filter>
</defs>
</svg>
