<svg width="84" height="84" viewBox="0 0 84 84" fill="none" xmlns="http://www.w3.org/2000/svg">
<path opacity="0.6" d="M40.8345 7H29.1655C26.0711 7 23.1035 8.22922 20.9155 10.4173C18.7275 12.6053 17.4982 15.5729 17.4982 18.6672C17.4982 21.7616 18.7275 24.7292 20.9155 26.9172C23.1035 29.1053 26.0711 30.3345 29.1655 30.3345H40.8345V7Z" fill="black"/>
<path opacity="0.4" d="M40.8345 30.3345H29.1655C26.0716 30.3345 23.1045 31.5635 20.9167 33.7513C18.729 35.939 17.5 38.9061 17.5 42C17.5 45.0939 18.729 48.0611 20.9167 50.2488C23.1045 52.4365 26.0716 53.6655 29.1655 53.6655H40.8345V30.3345Z" fill="black"/>
<path d="M64.1655 42C64.1655 45.0944 62.9363 48.062 60.7482 50.25C58.5602 52.438 55.5926 53.6673 52.4982 53.6673C49.4039 53.6673 46.4363 52.438 44.2483 50.25C42.0602 48.062 40.831 45.0944 40.831 42C40.831 38.9057 42.0602 35.9381 44.2483 33.75C46.4363 31.562 49.4039 30.3328 52.4982 30.3328C55.5926 30.3328 58.5602 31.562 60.7482 33.75C62.9363 35.9381 64.1655 38.9057 64.1655 42Z" fill="black"/>
<path opacity="0.2" d="M29.1655 53.669H40.8345V65.3345C40.8338 67.6414 40.1491 69.8963 38.867 71.8142C37.5849 73.732 35.763 75.2267 33.6316 76.1092C31.5001 76.9917 29.1549 77.2224 26.8923 76.7722C24.6297 76.3219 22.5515 75.211 20.9202 73.5798C19.289 71.9485 18.178 69.8702 17.7278 67.6077C17.2776 65.3451 17.5083 62.9999 18.3908 60.8684C19.2733 58.737 20.768 56.915 22.6858 55.6329C24.6036 54.3509 26.8586 53.6697 29.1655 53.669Z" fill="black"/>
<path opacity="0.8" d="M40.831 7H52.4965C55.5908 7 58.5584 8.22922 60.7465 10.4173C62.9345 12.6053 64.1637 15.5729 64.1637 18.6672C64.1637 21.7616 62.9345 24.7292 60.7465 26.9172C58.5584 29.1053 55.5908 30.3345 52.4965 30.3345H40.831V7Z" fill="black"/>
</svg>
