<svg width="84" height="84" viewBox="0 0 84 84" fill="none" xmlns="http://www.w3.org/2000/svg">
<path fill-rule="evenodd" clip-rule="evenodd" d="M75.6805 38.885L45.115 8.31601C44.2687 7.47284 43.1228 6.99942 41.9282 6.99942C40.7336 6.99942 39.5877 7.47284 38.7415 8.31601L32.396 14.6685L40.446 22.7185C41.3952 22.3966 42.4156 22.3476 43.3913 22.5769C44.3669 22.8063 45.2587 23.3049 45.965 24.016C46.6713 24.727 47.1639 25.6221 47.3867 26.5992C47.6096 27.5764 47.5537 28.5965 47.2255 29.5435L54.985 37.303C56.1445 36.9044 57.4056 36.9153 58.5581 37.3338C59.7106 37.7523 60.6848 38.5531 61.3185 39.6028C61.9521 40.6525 62.2068 41.8877 62.0402 43.1024C61.8736 44.3171 61.2957 45.4381 60.4029 46.2784C59.51 47.1188 58.3561 47.6277 57.1335 47.7205C55.9109 47.8132 54.6935 47.4841 53.6841 46.7881C52.6747 46.0921 51.9343 45.0711 51.5864 43.8954C51.2384 42.7197 51.304 41.4603 51.772 40.327L44.534 33.089V52.1325C45.6337 52.6767 46.5138 53.5814 47.0273 54.6957C47.5409 55.8101 47.657 57.0668 47.3563 58.2564C47.0556 59.446 46.3562 60.4966 45.3748 61.2331C44.3934 61.9695 43.1892 62.3474 41.9629 62.3036C40.7367 62.2598 39.5625 61.797 38.6361 60.9924C37.7097 60.1878 37.0871 59.09 36.872 57.882C36.6569 56.674 36.8624 55.4287 37.4542 54.3538C38.0459 53.2789 38.9882 52.4393 40.124 51.975V32.76C39.4684 32.4924 38.8724 32.0974 38.3705 31.598C37.8686 31.0985 37.4707 30.5045 37.1999 29.8502C36.929 29.196 36.7907 28.4945 36.7928 27.7864C36.7948 27.0783 36.9373 26.3777 37.212 25.725L29.2775 17.7835L8.31949 38.738C7.47526 39.5844 7.00116 40.7311 7.00116 41.9265C7.00116 43.122 7.47526 44.2686 8.31949 45.115L38.885 75.677C39.7312 76.5202 40.8771 76.9936 42.0717 76.9936C43.2663 76.9936 44.4122 76.5202 45.2585 75.677L75.6805 45.255C76.5247 44.4086 76.9988 43.262 76.9988 42.0665C76.9988 40.8711 76.5247 39.7244 75.6805 38.878" fill="white"/>
</svg>
