<svg width="84" height="84" viewBox="0 0 84 84" fill="none" xmlns="http://www.w3.org/2000/svg">
<path d="M42 7C37.4037 7 32.8525 7.9053 28.6061 9.66422C24.3597 11.4231 20.5013 14.0012 17.2513 17.2513C10.6875 23.815 7 32.7174 7 42C7 57.47 17.045 70.595 30.94 75.25C32.69 75.53 33.25 74.445 33.25 73.5V67.585C23.555 69.685 21.49 62.895 21.49 62.895C19.88 58.835 17.605 57.75 17.605 57.75C14.42 55.58 17.85 55.65 17.85 55.65C21.35 55.895 23.205 59.255 23.205 59.255C26.25 64.575 31.395 63 33.39 62.16C33.705 59.885 34.615 58.345 35.595 57.47C27.825 56.595 19.67 53.585 19.67 40.25C19.67 36.365 21 33.25 23.275 30.765C22.925 29.89 21.7 26.25 23.625 21.525C23.625 21.525 26.565 20.58 33.25 25.095C36.015 24.325 39.025 23.94 42 23.94C44.975 23.94 47.985 24.325 50.75 25.095C57.435 20.58 60.375 21.525 60.375 21.525C62.3 26.25 61.075 29.89 60.725 30.765C63 33.25 64.33 36.365 64.33 40.25C64.33 53.62 56.14 56.56 48.335 57.435C49.595 58.52 50.75 60.655 50.75 63.91V73.5C50.75 74.445 51.31 75.565 53.095 75.25C66.99 70.56 77 57.47 77 42C77 37.4037 76.0947 32.8525 74.3358 28.6061C72.5769 24.3597 69.9988 20.5013 66.7487 17.2513C63.4987 14.0012 59.6403 11.4231 55.3939 9.66422C51.1475 7.9053 46.5963 7 42 7Z" fill="#525252"/>
</svg>
