<svg width="37" height="37" viewBox="0 0 37 37" fill="none" xmlns="http://www.w3.org/2000/svg">
<path d="M18.647 13.9706C27.0215 13.9706 32.147 16.8843 32.147 18.4706C32.147 20.0568 27.0215 22.9706 18.647 22.9706C10.2725 22.9706 5.14703 20.0568 5.14703 18.4706C5.14703 16.8843 10.2725 13.9706 18.647 13.9706ZM18.647 11.7206C9.94853 11.7206 2.89703 14.7423 2.89703 18.4706C2.89703 22.1988 9.94853 25.2206 18.647 25.2206C27.3455 25.2206 34.397 22.1988 34.397 18.4706C34.397 14.7423 27.3455 11.7206 18.647 11.7206Z" fill="#00BCD4"/>
<path d="M18.647 16.2206C18.202 16.2206 17.767 16.3525 17.397 16.5998C17.027 16.847 16.7386 17.1984 16.5683 17.6095C16.398 18.0207 16.3535 18.4731 16.4403 18.9095C16.5271 19.346 16.7414 19.7469 17.056 20.0616C17.3707 20.3762 17.7716 20.5905 18.2081 20.6773C18.6445 20.7642 19.0969 20.7196 19.5081 20.5493C19.9192 20.379 20.2706 20.0906 20.5178 19.7206C20.7651 19.3506 20.897 18.9156 20.897 18.4706C20.897 17.8738 20.66 17.3015 20.238 16.8796C19.8161 16.4576 19.2438 16.2206 18.647 16.2206Z" fill="#00BCD4"/>
<path d="M12.4123 6.66595C14.6814 6.66595 19.0914 10.2401 22.5441 16.2206C26.7313 23.4735 26.7707 29.3685 25.3971 30.1616C25.2386 30.2437 25.0612 30.2826 24.8829 30.2741C22.6138 30.2741 18.2027 26.7011 14.7501 20.7206C10.5628 13.4677 10.5234 7.5727 11.8971 6.77958C12.0559 6.69722 12.2336 6.65728 12.4123 6.66595ZM12.4112 4.41708C11.8378 4.40671 11.2721 4.54921 10.7721 4.82995C7.54331 6.69408 8.45231 14.3126 12.8016 21.8456C16.4961 28.2468 21.4866 32.5252 24.8841 32.5252C25.4572 32.5347 26.0226 32.3914 26.5221 32.1101C29.7508 30.2471 28.8418 22.6286 24.4926 15.0956C20.7981 8.69433 15.8076 4.41595 12.4101 4.41595L12.4112 4.41708Z" fill="#00BCD4"/>
<path d="M24.8829 6.66596C25.0612 6.65748 25.2386 6.69629 25.3971 6.77846C26.7707 7.57271 26.7313 13.4677 22.5441 20.7206C19.0903 26.7011 14.6803 30.2752 12.4112 30.2752C12.2329 30.2837 12.0555 30.2449 11.8971 30.1627C10.5234 29.3673 10.5628 23.4723 14.7501 16.2206C18.2038 10.2401 22.6138 6.66596 24.8829 6.66596ZM24.8829 4.41596C21.4854 4.41596 16.4961 8.69546 12.8004 15.0956C8.45343 22.6286 7.5433 30.2471 10.7721 32.1101C11.2719 32.3916 11.8376 32.5349 12.4112 32.5252C15.8087 32.5252 20.7981 28.2457 24.4937 21.8456C28.8407 14.3126 29.7508 6.69408 26.5221 4.83108C26.0223 4.54956 25.4565 4.40627 24.8829 4.41596Z" fill="#00BCD4"/>
</svg>
