<svg width="84" height="84" viewBox="0 0 84 84" fill="none" xmlns="http://www.w3.org/2000/svg">
<path d="M21 10.5C18.2152 10.5 15.5445 11.6062 13.5754 13.5754C11.6062 15.5445 10.5 18.2152 10.5 21V63C10.5 65.7848 11.6062 68.4555 13.5754 70.4246C15.5445 72.3938 18.2152 73.5 21 73.5H63C65.7848 73.5 68.4555 72.3938 70.4246 70.4246C72.3938 68.4555 73.5 65.7848 73.5 63V21C73.5 18.2152 72.3938 15.5445 70.4246 13.5754C68.4555 11.6062 65.7848 10.5 63 10.5H21ZM46.669 56.1925C49.189 58.2225 51.7043 59.2235 54.215 59.1955C55.755 59.1955 56.9357 58.9132 57.757 58.3485C58.1394 58.1003 58.4506 57.7567 58.6598 57.3517C58.8691 56.9466 58.9693 56.494 58.9505 56.0385C58.9558 55.5416 58.852 55.0496 58.6464 54.5973C58.4408 54.1449 58.1384 53.7432 57.7605 53.4205C56.9392 52.7042 55.3852 51.9855 53.0985 51.2645C50.3522 50.4712 48.2347 49.4445 46.746 48.1845C45.2853 46.9245 44.541 45.1663 44.513 42.91C44.513 40.7797 45.437 38.9958 47.285 37.5585C49.0817 36.1212 51.38 35.4025 54.18 35.4025C58.0813 35.4025 61.2115 36.3522 63.5705 38.2515L60.8755 42.448C59.9051 41.6935 58.7919 41.1434 57.603 40.831C56.5347 40.4731 55.4184 40.2784 54.292 40.2535C52.962 40.2535 51.8968 40.4973 51.0965 40.985C50.3032 41.475 49.9065 42.1167 49.9065 42.91C49.9065 43.7827 50.393 44.527 51.366 45.143C52.346 45.7357 54.0143 46.3902 56.371 47.1065C59.22 47.9535 61.2477 49.0828 62.454 50.4945C63.6603 51.9062 64.2635 53.7028 64.2635 55.8845C64.2635 58.1175 63.4037 60.0425 61.684 61.6595C59.99 63.2508 57.526 64.085 54.292 64.162C50.057 64.162 46.515 62.8915 43.666 60.3505L46.669 56.1925ZM27.314 58.4255C28.1353 58.9388 29.1235 59.1955 30.2785 59.1955C31.4848 59.1955 32.4858 58.849 33.2815 58.156C34.0748 57.4373 34.4727 56.1925 34.475 54.4215V35.8645H39.6725V55.4225C39.5955 58.4512 38.7228 60.6328 37.0545 61.9675C36.1416 62.7393 35.0803 63.3158 33.936 63.6615C32.8749 63.9846 31.7727 64.1532 30.6635 64.162C28.7385 64.162 27.0317 63.8283 25.543 63.161C23.9517 62.4447 22.617 61.1742 21.539 59.3495L25.158 56.385C25.823 57.2833 26.5417 57.9635 27.314 58.4255Z" fill="#525252"/>
</svg>
