<svg width="69" height="69" viewBox="0 0 69 69" fill="none" xmlns="http://www.w3.org/2000/svg">
<path d="M54.625 8.625C56.15 8.625 57.6125 9.2308 58.6909 10.3091C59.7692 11.3875 60.375 12.85 60.375 14.375V54.625C60.375 56.15 59.7692 57.6125 58.6909 58.6909C57.6125 59.7692 56.15 60.375 54.625 60.375H14.375C12.85 60.375 11.3875 59.7692 10.3091 58.6909C9.2308 57.6125 8.625 56.15 8.625 54.625V14.375C8.625 12.85 9.2308 11.3875 10.3091 10.3091C11.3875 9.2308 12.85 8.625 14.375 8.625H54.625ZM53.1875 53.1875V37.95C53.1875 35.4643 52.2 33.0803 50.4424 31.3226C48.6847 29.565 46.3007 28.5775 43.815 28.5775C41.3713 28.5775 38.525 30.0725 37.145 32.315V29.1238H29.1238V53.1875H37.145V39.0137C37.145 36.8 38.9275 34.9888 41.1413 34.9888C42.2087 34.9888 43.2325 35.4128 43.9874 36.1676C44.7422 36.9225 45.1662 37.9463 45.1662 39.0137V53.1875H53.1875ZM19.78 24.61C21.061 24.61 22.2895 24.1011 23.1953 23.1953C24.1011 22.2895 24.61 21.061 24.61 19.78C24.61 17.1063 22.4538 14.9213 19.78 14.9213C18.4914 14.9213 17.2555 15.4332 16.3443 16.3443C15.4332 17.2555 14.9213 18.4914 14.9213 19.78C14.9213 22.4538 17.1063 24.61 19.78 24.61ZM23.7763 53.1875V29.1238H15.8125V53.1875H23.7763Z" fill="white"/>
</svg>
