<svg width="84" height="84" viewBox="0 0 84 84" fill="none" xmlns="http://www.w3.org/2000/svg">
<path d="M75.159 19.894C73.1986 19.8955 71.2942 20.5476 69.7443 21.7479C68.1943 22.9482 67.0865 24.6289 66.5945 26.5265H56.455C54.3623 26.5261 52.3374 27.268 50.7403 28.6202C49.1432 29.9725 48.0776 31.8474 47.733 33.9115L47.3725 36.0955C47.2022 37.1284 46.6699 38.0671 45.8709 38.7436C45.072 39.4201 44.0584 39.7903 43.0115 39.788H39.508C39.0172 37.8903 37.9098 36.2093 36.3599 35.0093C34.81 33.8093 32.9054 33.1581 30.9452 33.1581C28.9851 33.1581 27.0804 33.8093 25.5305 35.0093C23.9806 36.2093 22.8733 37.8903 22.3825 39.788H17.4055C16.8671 37.7038 15.5871 35.8875 13.8054 34.6794C12.0237 33.4714 9.86261 32.9547 7.72717 33.226C5.59172 33.4974 3.62854 34.5382 2.20557 36.1534C0.782612 37.7686 -0.00244141 39.8474 -0.00244141 42C-0.00244141 44.1526 0.782612 46.2313 2.20557 47.8465C3.62854 49.4618 5.59172 50.5026 7.72717 50.7739C9.86261 51.0453 12.0237 50.5285 13.8054 49.3205C15.5871 48.1125 16.8671 46.2962 17.4055 44.212H22.3825C22.8721 46.1113 23.9791 47.7939 25.5295 48.9953C27.0799 50.1967 28.9856 50.8486 30.947 50.8486C32.9084 50.8486 34.8141 50.1967 36.3645 48.9953C37.9148 47.7939 39.0219 46.1113 39.5115 44.212H43.0115C44.059 44.2088 45.0734 44.5787 45.8731 45.2552C46.6728 45.9318 47.2056 46.8709 47.376 47.9045L47.7365 50.085C48.0804 52.1497 49.1457 54.0254 50.7428 55.3784C52.34 56.7313 54.3653 57.4737 56.4585 57.4735H57.7535C58.2915 59.5579 59.5712 61.3746 61.3529 62.583C63.1345 63.7914 65.2957 64.3084 67.4314 64.0373C69.567 63.7661 71.5304 62.7254 72.9535 61.1101C74.3767 59.4949 75.1619 57.416 75.1619 55.2632C75.1619 53.1105 74.3767 51.0316 72.9535 49.4163C71.5304 47.8011 69.567 46.7603 67.4314 46.4892C65.2957 46.218 63.1345 46.7351 61.3529 47.9435C59.5712 49.1518 58.2915 50.9685 57.7535 53.053H56.4585C55.4111 53.0552 54.3971 52.6845 53.598 52.0073C52.799 51.3301 52.2671 50.3906 52.0975 49.357L51.737 47.1765C51.4033 45.171 50.3869 43.3423 48.86 42C50.385 40.6557 51.3989 38.8258 51.73 36.82L52.094 34.643C52.2636 33.6094 52.7955 32.6699 53.5945 31.9927C54.3936 31.3155 55.4076 30.9448 56.455 30.947H66.591C67.0041 32.5489 67.8582 34.0029 69.0562 35.1437C70.2543 36.2845 71.7483 37.0664 73.3685 37.4006C74.9887 37.7348 76.6702 37.6079 78.2219 37.0343C79.7736 36.4607 81.1333 35.4634 82.1466 34.1558C83.1599 32.8481 83.7861 31.2824 83.9541 29.6366C84.1221 27.9908 83.8251 26.3309 83.097 24.8455C82.3688 23.36 81.2386 22.1086 79.8348 21.2333C78.431 20.358 76.8098 19.894 75.1555 19.894M75.1555 24.3145C76.3279 24.3145 77.4522 24.7802 78.2812 25.6092C79.1103 26.4382 79.576 27.5626 79.576 28.735C79.5764 29.3158 79.4624 29.891 79.2405 30.4277C79.0185 30.9644 78.693 31.4522 78.2825 31.863C77.872 32.2739 77.3845 32.5998 76.8479 32.8222C76.3114 33.0445 75.7363 33.159 75.1555 33.159C74.5747 33.159 73.9996 33.0445 73.463 32.8222C72.9265 32.5998 72.439 32.2739 72.0285 31.863C71.618 31.4522 71.2924 30.9644 71.0705 30.4277C70.8485 29.891 70.7345 29.3158 70.735 28.735C70.735 28.1542 70.8494 27.5791 71.0718 27.0425C71.2942 26.506 71.6201 26.0185 72.031 25.608C72.4418 25.1975 72.9295 24.8719 73.4663 24.65C74.003 24.428 74.5782 24.314 75.159 24.3145M8.84098 37.5795C9.42179 37.579 9.99699 37.693 10.5337 37.915C11.0704 38.1369 11.5582 38.4625 11.969 38.873C12.3799 39.2835 12.7058 39.771 12.9282 40.3075C13.1505 40.8441 13.265 41.4192 13.265 42C13.265 42.5808 13.1505 43.1559 12.9282 43.6924C12.7058 44.229 12.3799 44.7165 11.969 45.127C11.5582 45.5375 11.0704 45.8631 10.5337 46.085C9.99699 46.3069 9.42179 46.4209 8.84098 46.4205C7.66859 46.4205 6.54422 45.9548 5.71522 45.1257C4.88621 44.2967 4.42048 43.1724 4.42048 42C4.42048 40.8276 4.88621 39.7032 5.71522 38.8742C6.54422 38.0452 7.66859 37.5795 8.84098 37.5795ZM30.947 37.5795C31.5275 37.5795 32.1023 37.6938 32.6386 37.916C33.175 38.1381 33.6623 38.4637 34.0727 38.8742C34.4832 39.2847 34.8088 39.772 35.031 40.3083C35.2531 40.8447 35.3675 41.4195 35.3675 42C35.3675 43.1724 34.9018 44.2967 34.0727 45.1257C33.2437 45.9548 32.1194 46.4205 30.947 46.4205C29.7752 46.4196 28.6517 45.9534 27.8235 45.1245C26.9952 44.2956 26.53 43.1718 26.53 42C26.53 40.8276 26.9957 39.7032 27.8247 38.8742C28.6537 38.0452 29.7781 37.5795 30.9505 37.5795M66.3215 50.8445C67.4939 50.8445 68.6182 51.3102 69.4472 52.1392C70.2763 52.9682 70.742 54.0926 70.742 55.265C70.742 56.4374 70.2763 57.5617 69.4472 58.3907C68.6182 59.2197 67.4939 59.6855 66.3215 59.6855C65.7407 59.6859 65.1655 59.5719 64.6288 59.35C64.092 59.1281 63.6043 58.8025 63.1935 58.392C62.7826 57.9815 62.4567 57.494 62.2343 56.9574C62.0119 56.4209 61.8975 55.8458 61.8975 55.265C61.897 54.6842 62.011 54.109 62.233 53.5723C62.4549 53.0355 62.7805 52.5478 63.191 52.137C63.6015 51.7261 64.089 51.4002 64.6255 51.1778C65.1621 50.9554 65.7372 50.841 66.318 50.841" fill="#525252"/>
</svg>
