<svg width="92" height="29" viewBox="0 0 92 29" fill="none" xmlns="http://www.w3.org/2000/svg">
<path d="M3.88 28.28C2.97333 28.28 2.2 27.9733 1.56 27.36C0.92 26.72 0.6 25.92 0.6 24.96C0.6 23.9467 0.92 23.1467 1.56 22.56C2.2 21.9467 2.97333 21.64 3.88 21.64C4.78667 21.64 5.56 21.9467 6.2 22.56C6.84 23.1467 7.16 23.9467 7.16 24.96C7.16 25.92 6.84 26.72 6.2 27.36C5.56 27.9733 4.78667 28.28 3.88 28.28ZM12.5256 28V-1.90735e-06H16.8056L34.3656 21.56H32.2456V-1.90735e-06H37.4056V28H33.1256L15.5656 6.44H17.6856V28H12.5256ZM49.7084 11.64H63.6284V15.92H49.7084V11.64ZM50.1084 23.64H65.9084V28H44.9084V-1.90735e-06H65.3484V4.36H50.1084V23.64ZM77.3853 28V4.4H68.1053V-1.90735e-06H91.8653V4.4H82.5853V28H77.3853Z" fill="#525252"/>
</svg>
