<svg width="84" height="84" viewBox="0 0 84 84" fill="none" xmlns="http://www.w3.org/2000/svg">
<path fill-rule="evenodd" clip-rule="evenodd" d="M29.764 10.2872C27.524 9.6376 25.872 9.8112 24.668 10.4664C23.4584 11.116 22.4056 12.4096 21.7224 14.6384C21.0392 16.884 20.8096 19.88 21.14 23.4976C21.196 24.0837 21.2651 24.6829 21.3472 25.2952C24.4375 24.5246 27.5718 23.943 30.7328 23.5536C32.8879 20.4999 35.2749 17.6167 37.8728 14.9296L37.5032 14.6328C34.6584 12.3816 32.0152 10.9368 29.764 10.2872ZM42 11.0712C41.664 10.7875 41.3243 10.5112 40.9808 10.2424C37.7776 7.7112 34.496 5.824 31.3264 4.9056C28.1344 3.9816 24.8696 3.9816 21.9968 5.544C19.124 7.1064 17.332 9.8392 16.3688 13.0144C15.4056 16.1728 15.1928 19.9472 15.5624 24.0184C15.6483 24.9704 15.7696 25.9467 15.9264 26.9472C14.9707 27.2832 14.056 27.6416 13.1824 28.0224C9.4248 29.6296 6.2048 31.6176 3.8864 33.9696C1.5568 36.3272 0 39.2 0 42.4704C0 45.7408 1.5568 48.608 3.8864 50.9768C6.2048 53.3288 9.4248 55.3112 13.1824 56.924C14.0597 57.2973 14.9744 57.6557 15.9264 57.9992C15.7765 58.9717 15.6551 59.9484 15.5624 60.928C15.1928 64.9936 15.4056 68.768 16.3688 71.932C17.332 75.1072 19.124 77.8456 21.9968 79.3968C24.8696 80.9536 28.14 80.9592 31.3264 80.0352C34.496 79.1112 37.7776 77.2352 40.9808 74.6984L42 73.864C42.336 74.1477 42.6757 74.4259 43.0192 74.6984C46.2224 77.2296 49.504 79.1112 52.6736 80.0352C55.86 80.9592 59.1304 80.9536 62.0032 79.3968C64.876 77.8456 66.668 75.1072 67.6312 71.932C68.5944 68.7736 68.8072 64.9936 68.4376 60.928C68.3449 59.9484 68.2235 58.9717 68.0736 57.9992C69.0256 57.6632 69.9403 57.3048 70.8176 56.924C74.5752 55.3112 77.7952 53.3232 80.1136 50.9768C82.4432 48.6136 84 45.7352 84 42.4648C84 39.2056 82.4432 36.3272 80.1136 33.964C77.7952 31.612 74.5752 29.624 70.8176 28.0168C69.9136 27.6317 68.9986 27.2732 68.0736 26.9416C68.2229 25.9411 68.3443 24.9648 68.4376 24.0128C68.8072 19.9416 68.5944 16.1728 67.6312 13.0088C66.668 9.8336 64.876 7.0952 62.0032 5.5384C59.1304 3.9816 55.86 3.9816 52.6736 4.9056C49.504 5.824 46.2224 7.7056 43.0192 10.2424L42 11.0712ZM42 18.7152C40.7381 20.0069 39.4837 21.4163 38.2368 22.9432C40.7446 22.844 43.2554 22.844 45.7632 22.9432C44.5742 21.4769 43.3185 20.0661 42 18.7152ZM53.2672 23.5536C50.9712 20.3392 48.5632 17.4384 46.1272 14.9296L46.4912 14.6328C49.3472 12.3816 51.9792 10.9368 54.236 10.2872C56.4704 9.6376 58.128 9.8112 59.332 10.4664C60.5416 11.116 61.5944 12.4096 62.272 14.6384C62.9552 16.884 63.1904 19.88 62.86 23.4976C62.804 24.0875 62.7349 24.6848 62.6528 25.2896C59.5624 24.5208 56.4281 23.9411 53.2672 23.5536ZM50.1144 28.84C44.7165 28.3364 39.2835 28.3364 33.8856 28.84C31.0012 33.1531 28.5068 37.7146 26.432 42.4704C28.508 47.2228 31.0004 51.7822 33.88 56.0952C39.2816 56.5995 44.7184 56.5995 50.12 56.0952C53.0022 51.7837 55.4947 47.2241 57.568 42.4704C55.4923 37.7161 52.9943 33.1548 50.1144 28.84ZM60.3344 35.2128C59.4082 33.3971 58.424 31.6117 57.3832 29.8592C58.8392 30.1392 60.2429 30.4528 61.5944 30.8C61.2435 32.2373 60.8235 33.7083 60.3344 35.2128ZM60.3344 49.7224C59.4083 51.54 58.4241 53.3273 57.3832 55.0816C58.8392 54.8016 60.2429 54.4861 61.5944 54.1352C61.2248 52.6503 60.8045 51.1786 60.3344 49.7224ZM66.9424 52.4496C66.0692 49.0533 64.9691 45.7194 63.6496 42.4704C65.0272 39.0544 66.1304 35.7 66.9424 32.4912C67.5173 32.7077 68.0773 32.9317 68.6224 33.1632C71.96 34.5968 74.4856 36.2264 76.132 37.8952C77.7672 39.5528 78.4056 41.0984 78.4056 42.4704C78.4056 43.8424 77.7672 45.3824 76.132 47.04C74.4856 48.7144 71.96 50.344 68.6224 51.7776C68.067 52.0129 67.5069 52.2369 66.9424 52.4496ZM62.6584 59.6456C59.5681 60.4162 56.4338 60.9978 53.2728 61.3872C50.9768 64.6016 48.5688 67.4968 46.1328 70.0112L46.5024 70.3024C49.3472 72.5592 51.9904 73.9984 54.2416 74.6536C56.476 75.3032 58.1336 75.1296 59.3376 74.4744C60.5416 73.8192 61.6 72.5256 62.2776 70.2968C62.9664 68.0568 63.196 65.0552 62.8656 61.4376C62.8103 60.8388 62.7412 60.2413 62.6584 59.6456ZM42 66.2256C43.2619 64.9339 44.5163 63.5245 45.7632 61.9976C43.2554 62.0968 40.7446 62.0968 38.2368 61.9976C39.4837 63.5208 40.7381 64.9301 42 66.2256ZM26.6224 55.0816C25.5815 53.3273 24.5973 51.54 23.6712 49.7224C23.1859 51.2307 22.7659 52.7016 22.4112 54.1352C23.7589 54.4861 25.1627 54.8016 26.6224 55.0816ZM21.3472 59.6456C24.4375 60.4162 27.5718 60.9978 30.7328 61.3872C33.0288 64.6016 35.4312 67.4968 37.8728 70.0112L37.5032 70.3024C34.6584 72.5592 32.0152 73.9984 29.764 74.6536C27.524 75.3032 25.872 75.1296 24.6624 74.4744C23.4528 73.8192 22.4056 72.5256 21.7224 70.2968C21.0392 68.0568 20.8096 65.0552 21.14 61.4376C21.197 60.8389 21.2661 60.2415 21.3472 59.6456ZM17.0632 52.4496C17.8752 49.2352 18.9728 45.8864 20.356 42.4704C19.0365 39.2214 17.9364 35.8875 17.0632 32.4912C16.4845 32.7077 15.9245 32.9317 15.3832 33.1632C12.0456 34.5968 9.52 36.2264 7.8736 37.8952C6.2384 39.5528 5.6 41.0984 5.6 42.4704C5.6 43.8424 6.2384 45.3824 7.8736 47.04C9.52 48.7144 12.0456 50.344 15.3832 51.7776C15.9283 52.0053 16.4883 52.2293 17.0632 52.4496ZM22.4112 30.8056C22.7621 32.2392 23.1821 33.7083 23.6712 35.2128C24.5974 33.3971 25.5816 31.6117 26.6224 29.8592C25.1664 30.1392 23.7627 30.4547 22.4112 30.8056ZM33.6 42.4704C33.6 40.2426 34.485 38.106 36.0603 36.5307C37.6356 34.9554 39.7722 34.0704 42 34.0704C44.2278 34.0704 46.3644 34.9554 47.9397 36.5307C49.515 38.106 50.4 40.2426 50.4 42.4704C50.4 44.6982 49.515 46.8348 47.9397 48.4101C46.3644 49.9854 44.2278 50.8704 42 50.8704C39.7722 50.8704 37.6356 49.9854 36.0603 48.4101C34.485 46.8348 33.6 44.6982 33.6 42.4704ZM42 39.6704C41.2574 39.6704 40.5452 39.9654 40.0201 40.4905C39.495 41.0156 39.2 41.7278 39.2 42.4704C39.2 43.213 39.495 43.9252 40.0201 44.4503C40.5452 44.9754 41.2574 45.2704 42 45.2704C42.7426 45.2704 43.4548 44.9754 43.9799 44.4503C44.505 43.9252 44.8 43.213 44.8 42.4704C44.8 41.7278 44.505 41.0156 43.9799 40.4905C43.4548 39.9654 42.7426 39.6704 42 39.6704Z" fill="#525252"/>
</svg>
