<svg width="84" height="84" viewBox="0 0 84 84" fill="none" xmlns="http://www.w3.org/2000/svg">
<mask id="mask0_6_212" style="mask-type:luminance" maskUnits="userSpaceOnUse" x="0" y="0" width="84" height="84">
<path d="M0 0H84V84H0V0Z" fill="white"/>
</mask>
<g mask="url(#mask0_6_212)">
<path fill-rule="evenodd" clip-rule="evenodd" d="M70.875 24.9375C70.875 23.8932 70.4602 22.8917 69.7217 22.1533C68.9833 21.4148 67.9818 21 66.9375 21C65.8932 21 64.8917 21.4148 64.1533 22.1533C63.4148 22.8917 63 23.8932 63 24.9375V59.0625C63 61.236 64.764 63 66.9375 63H80.0625C81.1068 63 82.1083 62.5852 82.8467 61.8467C83.5852 61.1083 84 60.1068 84 59.0625C84 58.0182 83.5852 57.0167 82.8467 56.2783C82.1083 55.5398 81.1068 55.125 80.0625 55.125H70.875V24.9375ZM57.75 42C57.75 48.93 56.4008 54.1485 54.0278 57.645L59.2253 62.8425C59.6011 63.2059 59.9009 63.6405 60.107 64.121C60.3132 64.6015 60.4215 65.1182 60.4258 65.641C60.4301 66.1639 60.3303 66.6823 60.1321 67.1661C59.9338 67.6499 59.6413 68.0894 59.2714 68.4589C58.9015 68.8285 58.4618 69.1206 57.9778 69.3184C57.4938 69.5161 56.9752 69.6155 56.4524 69.6107C55.9296 69.6059 55.413 69.4971 54.9327 69.2905C54.4524 69.0839 54.018 68.7837 53.655 68.4075L47.712 62.4645C46.5395 62.8215 45.2918 63 43.9688 63C35.7 63 30.1875 56.0018 30.1875 42C30.1875 27.9982 35.7 21 43.9688 21C52.2375 21 57.75 27.9982 57.75 42ZM47.4758 53.2875C48.6413 51.597 49.875 48.1425 49.875 42.0053C49.875 35.8733 48.6413 32.4188 47.4758 30.723C46.557 29.3895 45.5543 28.8855 43.9688 28.8855C42.3833 28.8855 41.3805 29.3895 40.4618 30.723C39.2962 32.4188 38.0625 35.8732 38.0625 42.0105C38.0625 48.1372 39.2962 51.597 40.4618 53.2875C41.3805 54.621 42.3833 55.1303 43.9688 55.1303C45.5543 55.1303 46.557 54.621 47.4758 53.2875ZM13.4505 21.0105C9.83325 21.0105 6.70425 22.3178 4.515 24.7538C2.37825 27.1425 1.45425 30.24 1.45425 33.348C1.45425 37.191 3.16575 40.068 5.439 42.0525C7.5915 43.932 10.206 44.9978 12.2903 45.6435C14.3798 46.284 15.8813 46.7827 16.9628 47.5965C17.7345 48.1898 18.3803 48.993 18.3803 50.8778C18.3803 52.4002 17.808 53.3347 17.052 53.97C16.0205 54.7596 14.7491 55.171 13.4505 55.1355C12.39 55.1355 11.151 54.6472 9.996 53.5972C8.92048 52.6432 8.14836 51.3947 7.77525 50.0062C7.52032 49.0127 6.88774 48.1579 6.01212 47.6236C5.1365 47.0894 4.08697 46.9179 3.08685 47.1457C2.08674 47.3735 1.21499 47.9826 0.657111 48.8433C0.0992315 49.7041 -0.100739 50.7486 0.0997507 51.7545C0.766501 54.6787 2.478 57.4193 4.70925 59.4352C6.94575 61.4618 9.99075 63.0105 13.4505 63.0105C16.485 63.0105 19.6298 62.0655 22.0973 60.018C24.6435 57.8918 26.25 54.7365 26.25 50.883C26.25 46.4573 24.402 43.3597 21.714 41.3227C19.4355 39.5955 16.6635 38.7502 14.8575 38.1938L14.6108 38.115C12.9833 37.6163 11.571 36.9548 10.6208 36.12C10.2047 35.7903 9.87131 35.368 9.64711 34.8868C9.4229 34.4056 9.31407 33.8787 9.32925 33.348C9.32925 31.752 9.80175 30.66 10.3793 30.0142C10.899 29.4368 11.7968 28.8855 13.4505 28.8855C15.141 28.8855 16.065 29.4053 16.6635 29.967C17.346 30.6128 17.8868 31.6103 18.2385 32.907C18.5276 33.8927 19.1906 34.7264 20.0858 35.2302C20.9811 35.734 22.0377 35.868 23.0304 35.6035C24.023 35.3391 24.873 34.6972 25.399 33.8148C25.925 32.9324 26.0853 31.8794 25.8458 30.8805C25.2525 28.6755 24.1395 26.1975 22.071 24.2497C19.9238 22.218 17.0258 21.0105 13.4505 21.0105Z" fill="#525252"/>
</g>
</svg>
