<svg width="69" height="69" viewBox="0 0 69 69" fill="none" xmlns="http://www.w3.org/2000/svg">
<path d="M55.2862 43.8726L47.9837 43.0388C47.1251 42.938 46.2547 43.033 45.4381 43.3169C44.6215 43.6007 43.8798 44.0659 43.2687 44.6776L37.9788 49.9676C29.8178 45.8159 23.1842 39.1823 19.0325 31.0213L24.3512 25.7026C25.5875 24.4663 26.1912 22.7413 25.99 20.9876L25.1562 13.7426C24.9939 12.3398 24.321 11.0459 23.2658 10.1074C22.2107 9.16891 20.8471 8.65151 19.435 8.65382H14.4612C11.2125 8.65382 8.51 11.3563 8.71125 14.6051C10.235 39.1576 29.8713 58.7651 54.395 60.2888C57.6437 60.4901 60.3462 57.7876 60.3462 54.5388V49.5651C60.375 46.6613 58.19 44.2176 55.2862 43.8726Z" fill="white"/>
</svg>
