<svg width="69" height="69" viewBox="0 0 69 69" fill="none" xmlns="http://www.w3.org/2000/svg">
<path d="M34.5 5.75C50.3786 5.75 63.25 18.6214 63.25 34.5C63.25 50.3786 50.3786 63.25 34.5 63.25C29.6066 63.2569 24.7932 62.0098 20.5189 59.6275L19.642 59.1157L10.925 61.6803C10.4506 61.82 9.94842 61.8363 9.46597 61.7277C8.98353 61.619 8.53685 61.3888 8.16826 61.0591C7.79968 60.7294 7.52141 60.311 7.35983 59.8436C7.19825 59.3762 7.15872 58.8753 7.24499 58.3884L7.31974 58.075L9.88424 49.358C7.17327 44.8766 5.74332 39.7376 5.74999 34.5C5.74999 18.6214 18.6214 5.75 34.5 5.75ZM34.5 11.5C30.3819 11.4993 26.3392 12.6042 22.7939 14.6993C19.2487 16.7945 16.331 19.8031 14.3456 23.411C12.3601 27.0188 11.3797 31.0935 11.5068 35.2096C11.6338 39.3257 12.8637 43.3322 15.0679 46.8107C15.6371 47.7077 15.8815 48.8117 15.6889 49.9071L15.5767 50.3757L14.3089 54.6911L18.6242 53.4233C19.8691 53.0553 21.1629 53.2795 22.1892 53.9321C25.2032 55.8405 28.6197 57.0217 32.1688 57.3822C35.7178 57.7428 39.3021 57.2728 42.6383 56.0096C45.9744 54.7463 48.971 52.7243 51.3911 50.1034C53.8112 47.4826 55.5885 44.3347 56.5825 40.9087C57.5765 37.4826 57.7599 33.8723 57.1183 30.3632C56.4767 26.854 55.0276 23.5422 52.8856 20.6896C50.7436 17.8369 47.9674 15.5216 44.7764 13.9267C41.5855 12.3318 38.0673 11.501 34.5 11.5ZM26.1682 20.654C26.4869 20.5176 26.8353 20.4657 27.1798 20.5035C27.5243 20.5413 27.8533 20.6674 28.1347 20.8696C29.5837 21.9276 30.7337 23.3479 31.7227 24.7336L32.6629 26.0964L33.1027 26.7432C33.3575 27.114 33.4826 27.5585 33.4587 28.0077C33.4348 28.4569 33.2632 28.8856 32.9705 29.2273L32.7549 29.4457L30.0984 31.418C29.972 31.5117 29.8831 31.6475 29.8478 31.8008C29.8125 31.9541 29.8331 32.1151 29.9057 32.2546C30.5095 33.3471 31.5761 34.9772 32.8009 36.202C34.0285 37.4268 35.7334 38.5653 36.9006 39.2351C37.1536 39.3789 37.4584 39.3329 37.6654 39.146L37.7746 39.0166L39.5025 36.386C39.8192 35.9628 40.2878 35.679 40.8095 35.5943C41.3312 35.5096 41.8655 35.6305 42.2999 35.9318L43.861 37.0214C45.4135 38.1283 46.9056 39.3185 48.0872 40.8279C48.3059 41.1115 48.4448 41.4484 48.4898 41.8037C48.5348 42.159 48.4842 42.5198 48.3431 42.849C47.2046 45.5055 44.321 47.7681 41.3252 47.6589L40.8681 47.6301L40.319 47.5784L40.0085 47.5381L39.3242 47.4231C36.6677 46.9229 32.4099 45.4164 27.9967 41.0061C23.5865 36.593 22.08 32.3351 21.5797 29.6786L21.4647 28.9944L21.3929 28.3964L21.3555 27.8932L21.344 27.6776C21.2347 24.6761 23.5089 21.7925 26.1682 20.654Z" fill="white"/>
</svg>
