<svg width="84" height="84" viewBox="0 0 84 84" fill="none" xmlns="http://www.w3.org/2000/svg">
<path d="M12.8345 42C12.8319 47.478 14.3726 52.8459 17.2802 57.4886C20.1877 62.1313 24.3445 65.8609 29.274 68.25L15.358 30.1245C13.6898 33.8611 12.8299 37.9079 12.8345 42ZM42.5145 44.5515L33.761 69.979C39.6364 71.708 45.9068 71.5451 51.6845 69.5135C51.6059 69.384 51.5357 69.2496 51.4745 69.111L42.5145 44.5515ZM61.691 40.5265C61.6498 37.6746 60.8174 34.8901 59.2865 32.4835C57.7182 30.512 56.7261 28.145 56.42 25.6445C56.3852 24.3084 56.8813 23.013 57.7998 22.0421C58.7182 21.0712 59.9841 20.5039 61.32 20.4645C61.4483 20.4692 61.5732 20.4785 61.6945 20.4925C58.581 17.6394 54.8849 15.4968 50.8618 14.2128C46.8387 12.9288 42.5847 12.5341 38.3941 13.056C34.2035 13.5779 30.1762 15.004 26.591 17.2355C23.0057 19.4671 19.9481 22.4509 17.6295 25.9805C18.3155 26.0015 18.9595 26.0155 19.509 26.0155C22.5575 26.0155 27.279 25.6445 27.279 25.6445C27.5886 25.6359 27.8896 25.7465 28.1199 25.9535C28.3502 26.1606 28.4922 26.4482 28.5165 26.7569C28.5407 27.0656 28.4455 27.3719 28.2503 27.6124C28.0552 27.8529 27.7751 28.0092 27.468 28.049C27.468 28.049 25.886 28.231 24.129 28.3255L34.7515 59.9165L41.1355 40.7715L36.589 28.3255C35.0175 28.231 33.53 28.0455 33.53 28.0455C33.229 27.9993 32.9566 27.841 32.7673 27.6024C32.5781 27.3639 32.486 27.0626 32.5094 26.759C32.5329 26.4554 32.6702 26.1718 32.8938 25.9652C33.1175 25.7585 33.411 25.644 33.7155 25.6445C33.7155 25.6445 38.5315 26.0155 41.398 26.0155C44.4465 26.0155 49.1715 25.6445 49.1715 25.6445C49.3294 25.6323 49.4881 25.6514 49.6386 25.7005C49.7892 25.7497 49.9285 25.828 50.0488 25.931C50.169 26.0341 50.2678 26.1598 50.3395 26.301C50.4112 26.4422 50.4543 26.5961 50.4665 26.754C50.4787 26.9119 50.4596 27.0706 50.4105 27.2211C50.3613 27.3717 50.283 27.511 50.18 27.6313C50.0769 27.7515 49.9512 27.8503 49.81 27.922C49.6688 27.9937 49.5149 28.0368 49.357 28.049C49.357 28.049 47.775 28.231 46.0215 28.3255L56.56 59.6785L59.57 50.141C60.746 47.061 61.46 43.8165 61.691 40.5265ZM67.7915 31.01C67.7379 34.6036 66.9841 38.1523 65.5725 41.4575L56.665 67.214C63.2352 63.3922 68.054 57.1567 70.0956 49.835C72.1371 42.5134 71.2401 34.6841 67.5955 28.014C67.7262 29.008 67.7915 30.0067 67.7915 31.01ZM42 7C22.6695 7 7 22.6695 7 42C7 61.3305 22.6695 77 42 77C61.3305 77 77 61.3305 77 42C77 22.6695 61.3305 7 42 7ZM54.8065 72.317C49.7648 74.4495 44.2703 75.2889 38.8219 74.759C33.3735 74.2291 28.1437 72.3466 23.6075 69.2825C18.3165 65.7118 14.1744 60.6834 11.683 54.8065C9.55047 49.7648 8.71106 44.2703 9.24098 38.8219C9.77091 33.3735 11.6534 28.1437 14.7175 23.6075C18.2887 18.3178 23.317 14.1769 29.1935 11.6865C34.2349 9.55346 39.7292 8.71347 45.1776 9.24278C50.6261 9.7721 55.856 11.654 60.3925 14.7175C65.6835 18.2882 69.8256 23.3166 72.317 29.1935C74.4495 34.2352 75.2889 39.7297 74.759 45.1781C74.2291 50.6265 72.3466 55.8563 69.2825 60.3925C65.7118 65.6835 60.6834 69.8256 54.8065 72.317Z" fill="#525252"/>
</svg>
